<svg width="184" height="205" viewBox="0 0 184 205" fill="none" xmlns="http://www.w3.org/2000/svg">
<path d="M135.742 133.295C136.751 151.742 140.045 187.691 142.493 208.421C142.903 211.926 144.71 217.13 145.046 219.427C146.628 230.265 148.629 264.827 148.629 268.205C154.518 269.646 163.632 268.486 163.632 268.486C163.632 268.486 168.367 237.461 162.333 211.936C160.176 202.796 161.426 145.387 163.11 137.683C164.788 129.974 135.742 133.295 135.742 133.295Z" fill="black"/>
<path d="M169.807 133.472C169.807 133.472 175.551 145.917 173.332 156.812C170.633 170.102 175.059 203.238 176.175 207.717C177.302 212.22 184.619 234.387 183.579 273.35C183.579 273.35 176.527 276.191 167.891 272.664C167.891 261.736 164.148 229.831 159.928 222.771C158.352 220.126 156.566 211.856 156.566 208.002C156.566 204.157 144.067 149.666 145.185 139.388C146.309 129.116 169.807 133.472 169.807 133.472Z" fill="black"/>
<path d="M144.519 155.615C147.107 163.818 153.185 199.717 153.429 205.34C153.582 208.756 156.358 215.654 157.351 217.931C158.347 220.206 165.787 256.971 166.584 273.831C167.178 274.519 171.372 274.604 172.166 274.604C172.968 274.604 167.408 237.974 162.53 218.846C161.381 214.334 156.876 207.872 155.356 198.796C154.107 191.288 144.519 155.615 144.519 155.615Z" fill="#282626"/>
<path d="M106.771 78.4268C108.506 78.2062 117.468 84.7436 122.698 86.2069C130.818 88.4737 135.143 90.4653 138.752 90.0018C145.936 89.089 160.271 50.403 160.271 50.403C160.271 50.403 149.059 47.9925 146.623 52.0505C144.183 56.1126 143.741 67.1291 139.048 75.9454C135.571 75.4334 107.281 72.7921 106.752 72.4986L106.771 78.4268Z" fill="#E0AC9B"/>
<path d="M92.2711 76.713C91.965 77.9678 90.9174 80.1011 91.7561 79.7712C92.5966 79.4453 92.4746 78.7329 93.2708 78.1257C94.0671 77.5003 95.4224 75.0999 95.4224 75.0999C95.4224 75.0999 92.1755 79.2348 92.8992 79.668C93.607 80.095 96.3532 76.5612 96.3532 76.5612C96.3532 76.5612 94.605 79.1438 94.9748 79.0689C95.1075 79.0324 95.3286 79.1761 95.5905 79.0264C96.0577 78.7774 96.6628 78.1196 97.2273 77.646C98.0819 76.9093 102.711 75.4662 101.803 74.6323C100.897 73.7965 98.8817 72.4849 96.3815 73.6224C93.8654 74.7599 92.2711 76.713 92.2711 76.713Z" fill="#CC9483"/>
<path d="M107.944 72.3538C104.108 71.9267 97.5489 71.6211 96.013 72.125C94.4895 72.631 91.432 74.4769 91.432 74.4769C91.432 74.4769 88.3495 77.7415 89.5351 78.3285C90.1278 78.6199 91.7646 76.0434 92.5272 75.7844C93.2899 75.5192 95.461 74.7562 95.461 74.7562L99.4635 75.6184C99.4635 75.6184 94.5745 75.8714 94.5426 76.7336C94.5161 77.6019 94.9372 77.6221 96.7137 77.7091C98.4602 77.7861 100.438 79.7797 101.964 80.0063C104.503 80.3646 105.706 79.5044 107.283 79.2049C108.543 78.9681 111.232 79.6562 111.232 79.6562L113.378 73.5661L107.944 72.3538Z" fill="#E0AC9B"/>
<path d="M111.384 212.988C113.613 208.987 115.1 207.29 115.282 204.671C115.406 202.925 115.597 198.14 111.777 196.661C109.006 195.578 94.691 196.853 91.3396 196.853C83.3877 196.853 77.6636 210.077 82.1155 212.624C86.5656 215.172 111.384 212.988 111.384 212.988Z" fill="#3E2061"/>
<path d="M122.628 138.69C115.628 136.259 112.124 136.563 100.354 143.477C77.2362 162.646 47.1503 171.284 43.7229 172.899C38.9524 175.14 37.0397 185.695 30.3034 200.789C30.3034 200.789 25.9081 208.622 32.2657 208.804C36.7212 208.934 100.354 210.259 107.989 205.165C108.982 204.499 109.962 203.176 110.909 201.364C103.306 202.684 82.8241 203.08 80.63 202.558C78.082 201.955 76.4948 201.344 78.9296 199.158C81.1662 197.158 107.048 190.765 116.491 184.077C119.623 170.837 123.045 153.014 123.897 149.124C125.491 141.837 122.628 138.69 122.628 138.69Z" fill="#3E2061"/>
<path d="M18.4955 192.46C15.2274 194.735 14.7213 201.104 14.6063 204.152C14.0878 217.668 15.652 269.308 15.652 269.308L33.5111 269.002C33.5111 269.002 42.2114 221.919 37.6303 202.946C36.2396 197.198 25.3468 187.683 18.4955 192.46Z" fill="black"/>
<path d="M104.309 94.8145C104.013 98.071 107.653 112.133 109.421 116.669C111.178 121.195 102.612 127.607 102.612 127.607L93.9805 125.287C93.9805 125.287 91.9439 117.258 90.0665 114.22C88.1803 111.154 104.309 94.8145 104.309 94.8145Z" fill="#CC9483"/>
<path d="M95.6019 80.547C89.4301 80.5692 86.5388 83.2388 85.3037 93.725C85.2329 94.3909 85.9088 95.8765 85.8734 96.5262C85.8628 96.6759 85.8628 96.8014 85.8398 96.9492C85.0542 99.5742 83.6085 103.547 83.7058 104.229C83.7819 104.79 84.948 105.397 86.0451 105.541C86.2344 107.16 86.5228 108.488 86.7281 109.682C87.2465 112.76 87.5597 113.529 88.3613 113.695C91.3127 114.282 94.7065 113.185 97.957 112.416C102.405 111.362 102.738 103.875 103.439 98.4671C104.584 89.5354 103.488 80.5126 95.6019 80.547Z" fill="#CC9483"/>
<path d="M102.994 94.9565C104.052 93.0074 106.359 93.2503 106.835 94.9626C107.292 96.7315 106.204 102.785 103.452 103.2C100.704 103.625 102.994 94.9565 102.994 94.9565Z" fill="#E0AC9B"/>
<path d="M86.5408 86.3085C85.3499 84.9363 86.4487 85.4807 84.9836 83.2524C84.4015 82.3659 84.497 80.2326 84.497 80.2326L88.6517 80.9491C88.6517 80.9491 85.6224 80.5666 84.8421 79.5546C84.6457 79.3036 92.3693 78.3807 92.3693 78.3807C92.3693 78.3807 97.7679 75.8183 104.117 77.6824C108.321 78.9352 108.958 81.2385 108.958 81.2385C108.958 81.2385 118.948 86.4462 111.386 104.382C111.386 104.382 109.071 108.868 110.86 110.918C108.77 112.28 103.027 109.467 103.027 109.467C103.027 109.467 101.846 102.654 102.547 100.907C104.032 97.1509 102.068 95.5337 101.169 96.8979C100.847 97.3735 101.084 99.9156 100.498 100.312C99.9762 100.648 96.7841 103.156 96.9133 102.601C98.3341 96.0215 94.6413 89.5388 93.1408 88.1625C91.6492 86.8044 98.4421 84.1409 100.231 83.7928C102.018 83.4527 97.2424 83.4831 92.6418 86.9481C91.7058 87.6524 86.5408 86.3085 86.5408 86.3085Z" fill="black"/>
<path d="M100.774 96.2528C101.579 95.6578 104.044 94.9089 104.13 97.3235C104.212 99.7421 102.862 104.727 101.073 104.515C99.3049 104.302 100.774 96.2528 100.774 96.2528Z" fill="#CC9483"/>
<path d="M97.3065 102.141C96.5208 103.367 94.2701 108.291 93.4968 109.182C92.7129 110.079 87.1409 111.762 87.1409 111.762C87.1409 111.762 86.0775 117.055 86.7641 117.268C87.4471 117.494 96.0643 115.242 96.8482 114.572C97.6267 113.896 100.196 100.932 100.283 99.7017C100.385 98.4832 97.3065 102.141 97.3065 102.141Z" fill="black"/>
<path d="M64.0877 189.873C49.396 190.332 31.3193 195.969 26.7169 200.48C23.8168 203.316 24.0487 203.925 24.215 208.584C24.7971 225.361 31.291 255.931 32.2607 273.656L51.6697 268.558C51.6697 268.558 51.5317 236.134 45.2484 214.037C44.4858 211.347 101.657 212.118 104.994 205.226C108.828 197.325 106.273 189.468 106.273 189.468C106.273 189.468 65.8997 189.816 64.0877 189.873Z" fill="black"/>
<path d="M25.2764 202.423L32.2604 273.656C32.2604 273.656 38.0854 272.527 40.1344 270.928C42.1675 269.325 31.7667 204.641 30.8395 203.251C29.9194 201.854 25.2764 202.423 25.2764 202.423Z" fill="#282626"/>
<path d="M90.4294 118.168C92.3793 122.532 106.956 114.367 108.441 113.005C109.927 111.641 110.989 115.768 110.989 115.768C110.989 115.768 115.733 122.613 118.279 126.985C120.823 131.352 121.565 141.658 119.018 148.94C116.472 156.215 113.928 163.497 110.746 171.5C107.568 179.506 68.9695 203.976 65.151 208.344C65.151 208.344 61.7484 228.118 63.3232 241C63.8523 245.34 44.7228 235.908 35.0333 234.41C26.662 233.113 23.6097 223.256 19.0552 224.224C7.79085 226.622 0 217.779 0 217.779C0 217.779 12.2658 182.158 17.3529 177.788C22.4436 173.42 46.9859 163.813 52.7154 157.265C58.436 150.713 76.0668 135.475 81.1575 128.923C86.25 122.37 90.4294 118.168 90.4294 118.168Z" fill="black"/>
<path d="M114.03 123.097C108.306 123.097 103.642 125.04 101.31 131.591C99.5615 136.493 81.4794 171.496 77.0187 175.137C72.5649 178.78 49.6595 184.963 45.2058 185.692C43.2877 186.006 36.1267 182.093 31.8394 181.326C26.1807 180.302 19.4904 176.519 25.08 174.192C49.5763 164.001 72.565 143.838 88.8988 121.156C89.4774 120.348 92.289 123.097 99.8233 121.039C102.527 120.296 108.303 116.673 108.303 116.673L114.03 123.097Z" fill="#282626"/>
<path d="M98.0215 127.348C94.6295 129.291 80.6314 163.732 75.5389 167.62C70.4482 171.504 63.2412 173.929 63.2412 173.929C63.2412 173.929 77.4658 162.053 83.8093 148.939C90.3863 135.35 98.0215 127.348 98.0215 127.348Z" fill="black"/>
<path d="M37.3592 176.352C41.6023 174.895 56.4516 167.139 60.6947 163.739C64.9361 160.343 75.9668 144.331 75.9668 144.331C75.9668 144.331 62.3934 160.343 57.722 162.282C53.0578 164.225 38.6332 173.929 37.3592 173.929C36.0852 173.929 37.3592 176.352 37.3592 176.352Z" fill="black"/>
<path d="M27.5898 187.317C25.4735 189.256 21.0145 223.224 20.5916 223.953C20.1687 224.68 24.2013 226.378 24.2013 226.378C24.2013 226.378 26.7422 195.083 26.9546 192.653C27.1687 190.226 27.5898 187.317 27.5898 187.317Z" fill="#282626"/>
<path d="M18.7266 176.891C16.2459 176.891 14.6091 182.438 5.11956 205.307C2.48131 211.664 0.448242 216.469 0.448242 216.469L2.83874 218.376C2.83874 218.376 7.30838 204.746 9.75907 197.559C13.6908 186.025 19.1867 176.891 18.7266 176.891Z" fill="#282626"/>
<path d="M125.64 140.253C124.035 138.193 122.687 137.679 120.969 137.169C120.448 137.201 120.806 141.17 121.169 141.383C122.68 142.296 122.903 144.198 122.913 145.206C123.154 159.762 82.8264 182.886 63.343 186.422C58.2417 187.347 55.9237 200.982 50.9816 214.067C50.9816 214.067 47.8586 222.264 54.218 222.451C58.6734 222.574 101.839 222.084 109.474 216.99C111.424 215.688 113.395 211.011 115.278 204.67C106.509 206.902 83.8651 206.556 82.4283 206.556C80.7296 206.556 77.7658 205.107 80.7314 203.162C83.4758 201.371 112.974 193.704 120.156 184.228C123.38 168.273 125.842 151.794 126.657 148.084C127.416 144.603 126.647 142.012 125.64 140.253Z" fill="#6937A4"/>
<path d="M153.224 40.9459C150.925 38.8835 149.724 32.589 149.789 32.3218C150.745 28.5107 151.469 23.046 151.837 18.1339C151.837 18.1339 146.252 16.8952 142.589 16.3568C141.158 11.5337 138.327 8.33384 133.266 9.28308C126.951 10.455 124.368 13.7257 124.605 24.7016C124.624 25.3958 125.914 27.7821 125.916 27.9379C125.55 31.7652 124.428 34.7546 124.626 35.4468C124.789 35.9973 125.895 36.7179 127.034 36.6592C127.468 38.2864 128.282 40.0189 128.662 41.1989C129.628 44.251 130.564 44.6761 131.41 44.6882C132.951 44.7125 134.522 44.0972 136.103 43.2998C138.442 46.2062 140.804 54.4032 140.804 54.4032L148.114 51.0576C148.114 51.0576 156.752 44.1235 153.224 40.9459Z" fill="#CC9483"/>
<path d="M124.898 17.5822C123.486 16.4042 121.988 14.2689 121.726 12.8603C121.055 9.16046 124.437 3.96496 124.437 3.96496L125.985 10.5064C125.985 10.5064 125.397 9.1382 125.342 7.07174C125.284 4.63286 126.847 0.240875 126.618 1.93291C125.914 7.15675 129.74 8.37921 129.74 8.37921C137.417 1.74872 125.772 3.31932 141.273 4.99718C145.757 5.49305 147.997 8.59173 147.997 8.59173C147.997 8.59173 157.01 8.94593 150.856 33.9439C150.856 33.9439 146.415 33.0756 145.422 31.42C141.561 24.9676 139.149 26.441 138.341 25.0728C136.681 22.2838 135.273 22.128 134.913 22.9072C134.653 23.4577 134.784 16.6309 131.242 17.0964C130.085 17.2482 124.898 17.5822 124.898 17.5822Z" fill="black"/>
<path d="M146.023 10.5901C144.337 7.62295 140.55 6.66967 135.857 9.52952C138.297 8.7847 140.026 7.49949 142.387 9.6125C144.747 11.7296 146.023 10.5901 146.023 10.5901Z" fill="#272727"/>
<path d="M133.369 9.49839C129.202 9.69876 126.909 5.157 127.089 0.754883C126.098 5.24605 126.562 10.8605 130.913 11.2754C134.257 11.5972 133.369 9.49839 133.369 9.49839Z" fill="#272727"/>
<path d="M139.169 11.5915C127.553 17.2181 123.885 10.3123 125.553 4.37402C122.855 8.61827 123.727 14.4493 126.065 15.3115C130.028 16.7688 139.169 11.5915 139.169 11.5915Z" fill="#272727"/>
<path d="M136.448 6.87135C133.35 6.34512 132.035 2.58662 131.373 1.25283C130.825 1.89645 131.741 3.91231 131.741 3.91231C131.741 3.91231 130.361 1.98146 130.246 0C128.427 1.78716 129.246 3.09666 129.855 4.07221C128.475 2.14135 129.156 0.566706 129.156 0.566706C129.156 0.566706 126.735 7.55545 129.129 9.11592C132.49 11.3139 138.368 7.73558 139.095 7.24173C139.817 6.74788 136.448 6.87135 136.448 6.87135Z" fill="#272727"/>
<path d="M127.727 0.948242C127.718 2.58967 127.543 7.64553 130.516 9.58853C129.238 9.5521 127.426 5.27345 127.294 4.2979C127.161 3.32842 127.727 0.948242 127.727 0.948242Z" fill="black"/>
<path d="M130.72 0.595703C130.57 1.41338 131.393 7.49134 134.468 7.9022C135.379 7.97911 134.087 8.30295 133.718 8.21794C130.823 7.59254 130.943 4.17407 130.695 2.37477C130.471 0.781911 130.72 0.595703 130.72 0.595703Z" fill="black"/>
<path d="M147.699 11.1903C148.255 8.36286 146.295 4.5396 142.273 4.17933C142.273 4.17933 144.005 4.04373 144.792 6.27009C145.571 8.48835 145.429 6.87727 145.429 6.87727C145.429 6.87727 145.39 4.8857 139.725 4.18339C142.419 5.24394 141.023 5.49693 142.152 6.74774C143.278 7.9945 147.699 11.1903 147.699 11.1903Z" fill="black"/>
<path d="M139.733 25.549C139.974 22.7175 143.269 22.3329 143.69 24.7839C144.12 27.241 143.447 32.6045 141.588 32.7179C139.744 32.8352 139.733 25.549 139.733 25.549Z" fill="#CC9483"/>
<path d="M136.516 53.9454C137.229 52.7755 137.413 51.0977 137.413 51.0977C138.209 53.8341 151.905 45.3253 153.545 39.7129L155.036 41.6458C155.036 41.6458 162.028 47.7581 162.659 48.5657C162.659 48.5657 169.277 53.9454 169.277 78.4353C169.277 91.2267 176.452 137.134 176.452 137.134C176.452 137.134 165.602 144.52 156.04 145.426C146.483 146.337 133.033 140.316 133.033 140.316C133.033 140.316 132.434 98.94 131.639 93.4733C130.845 88.0066 131.122 74.4825 131.736 68.9854C132.398 63.0532 135.084 56.2911 136.516 53.9454Z" fill="#3E2061"/>
<path d="M162.66 48.5662C162.103 47.8518 156.375 42.8162 155.108 41.8467C153.979 43.4679 152.244 45.6355 150.564 46.3196L155.144 50.6489C155.144 50.6489 161.915 60.4428 161.317 64.9967C160.718 69.5486 164.287 103.108 165.198 110.673C166.392 120.581 169.271 140.371 169.337 140.711C169.83 140.61 176.252 137.137 176.252 137.137C176.252 137.137 169.085 91.2293 169.085 78.4379C169.085 53.95 162.66 48.5662 162.66 48.5662Z" fill="#6937A4"/>
<path d="M149.828 59.2049C147.442 62.9371 141.297 77.455 136.693 85.5731C133.446 84.9881 113.191 85.5285 112.701 85.233C110.464 83.9094 110.236 83.9053 108.918 83.0877C107.585 82.2821 106.145 82.2052 104.231 79.9708C103.714 79.3636 102.843 79.3211 103.231 80.2359C103.618 81.1507 104.673 82.3894 105.423 83.4196C106.357 84.6846 102.196 84.9416 101.136 84.8262C100.221 84.721 94.8455 84.8627 94.8862 85.6237C94.9605 87.0202 101.125 86.7389 100.647 86.9899C100.341 87.1497 93.9024 86.2511 94.1094 87.089C94.5358 88.8944 100.028 88.1921 100.667 89.0826C100.667 89.0826 99.2089 88.7851 97.7721 88.8256C96.4574 88.86 95.3356 88.3378 95.102 88.7709C94.3057 90.1776 102.53 90.7463 101.594 91.4041C101.212 91.6692 96.9033 89.5461 97.2006 90.6836C97.351 91.2422 102.585 93.7964 102.585 93.7964C102.585 93.7964 107.511 94.5433 110.22 94.2842C111.846 94.1344 120.072 96.4822 125.041 97.5367C132.832 99.2044 138.39 99.9452 141.784 99.6194C148.539 98.9859 162.985 67.3858 162.985 67.3858C162.985 67.3858 152.213 55.4646 149.828 59.2049Z" fill="#CC9483"/>
<path d="M143.82 69.7789C145.781 69.8943 156.148 76.3082 157.62 80.8864C161.895 73.4464 163.902 66.5001 164.107 62.015C164.316 57.534 163.182 51.6867 158.703 51.4176C154.226 51.1484 151.353 52.5793 149.79 56.018C148.228 59.4486 143.82 69.7789 143.82 69.7789Z" fill="#6937A4"/>
<path d="M159.309 52.0989C152.716 50.417 150.812 54.2929 147.08 63.0708C144.957 68.0821 144.472 69.339 144.472 69.339C144.472 69.339 149.936 72.5571 150.762 72.9275C153.117 58.4622 160.952 52.5178 159.309 52.0989Z" fill="#3E2061"/>
</svg>
