<svg width="217" height="165" viewBox="0 0 217 165" fill="none" xmlns="http://www.w3.org/2000/svg">
<path d="M86.2268 31.5743C85.5725 33.0124 86.1712 34.8014 86.8085 36.2511C87.9639 38.8811 89.2487 41.4241 90.6528 43.8616C90.5732 39.7475 90.4932 35.6339 90.4131 31.5203C90.3988 30.7869 90.3495 29.9587 89.8945 29.4878C88.4114 27.9528 86.8849 30.1284 86.2268 31.5743Z" fill="#262626"/>
<path d="M140.725 184.016C141.859 173.018 143.848 150.329 143.587 128.531C143.305 105.618 140.535 83.6919 131.662 77.4075C130.766 76.7733 128.208 75.2118 125.731 73.9429C123.685 72.8951 121.702 72.0298 120.755 72.0298C120.755 72.0298 107.431 72.1205 96.6537 78.9187C96.6537 78.9187 96.6436 78.9187 96.6436 78.9282C96.6335 78.9388 96.6234 78.9484 96.6033 78.9585C96.1298 79.3312 92.7861 81.9803 88.4853 86.5324C87.5483 88.164 86.5913 91.1047 85.6246 94.9829C81.757 110.422 77.7892 140.688 75.2202 162.543C74.1343 171.811 73.297 179.556 72.8262 184.016H140.725Z" fill="#3E2061"/>
<path d="M91.9099 82.2482C96.5628 91.1181 106.071 94.8234 115.557 91.529C116.784 91.1027 117.311 93.0476 116.093 93.4713C105.838 97.0324 95.2154 92.8827 90.1707 83.2652C89.5689 82.1183 91.3065 81.0986 91.9099 82.2482Z" fill="#3E2061"/>
<path d="M96.6562 78.9135C98.029 82.8893 100.925 87.277 107.039 88.1922C116.339 89.5831 123.284 78.5116 125.729 73.9425C123.682 72.8911 121.701 72.0278 120.755 72.0278C120.755 72.0278 107.427 72.119 96.6562 78.9135Z" fill="#E09B7A"/>
<path d="M120.756 72.0289C120.406 72.3778 105.063 83.7318 105.063 83.7318C105.063 83.7318 105.415 76.738 105.583 73.0936C105.632 71.9653 105.667 71.1587 105.667 70.9806C105.667 69.5235 104.424 63.2147 104.424 63.2147L119.907 56.1333C119.907 56.1333 120.151 59.3264 120.389 62.8515C120.676 67.1029 120.948 71.8359 120.756 72.0289Z" fill="#E09B7A"/>
<path d="M120.389 62.8509C116.089 65.9746 106.614 72.8073 105.667 73.0766C105.639 73.0835 105.612 73.0904 105.583 73.0936C105.632 71.9653 105.667 71.1587 105.667 70.9806C105.667 69.5235 104.424 63.2147 104.424 63.2147L119.907 56.1333C119.907 56.1333 120.151 59.3264 120.389 62.8509Z" fill="#BA8267"/>
<path d="M122.026 56.6731C122.026 56.6731 121.638 57.7909 119.909 59.3212H119.905C119.552 59.6356 119.14 59.9675 118.665 60.3095C116.848 61.6129 99.8415 68.9005 97.2211 68.5511C94.6012 68.2017 92.1313 59.1982 91.9956 58.2512C91.1535 52.4413 88.8369 34.4889 88.8369 34.4889C95.3 14.9251 118.357 25.0564 120.978 26.978C123.597 28.8996 122.026 56.6731 122.026 56.6731Z" fill="#E09B7A"/>
<path d="M119.905 59.3215C119.553 59.6359 119.14 59.9679 118.665 60.3099C116.849 61.6132 99.8421 68.9008 97.2216 68.5514C94.6017 68.202 92.1318 59.1985 91.9961 58.2515C93.6276 62.206 95.4718 67.6744 97.3266 67.4994C100.122 67.238 117.841 60.408 119.905 59.3215Z" fill="#BA8267"/>
<path d="M91.1553 40.051C91.1553 40.051 92.3589 34.9585 94.622 35.7857C96.8851 36.6129 96.2334 37.0858 96.2334 37.0858L91.1553 40.051Z" fill="#262626"/>
<path d="M115.824 39.4335C115.824 39.4335 109.002 33.8532 107.07 36.584C105.943 38.1779 107.048 38.9414 107.048 38.9414L115.824 39.4335Z" fill="#262626"/>
<path d="M112.27 44.093C112.27 45.9006 111.358 47.3656 110.232 47.3656C109.106 47.3656 108.194 45.9006 108.194 44.093C108.194 42.2854 109.107 40.8203 110.232 40.8203C111.358 40.8203 112.27 42.2854 112.27 44.093Z" fill="#343737"/>
<path d="M93.0029 45.3197C93.0029 46.6819 93.6906 47.7864 94.539 47.7864C95.3874 47.7864 96.0751 46.6819 96.0751 45.3197C96.0751 43.9575 95.3874 42.853 94.539 42.853C93.6906 42.853 93.0029 43.9575 93.0029 45.3197Z" fill="#343737"/>
<path d="M100.102 61.3515C101.511 60.3509 103.369 60.0115 105.041 60.449C104.375 59.7385 103.542 59.3869 102.586 59.5699C101.629 59.7523 100.642 60.5418 100.102 61.3515Z" fill="#343737"/>
<path d="M103.072 50.6494C101.615 51.4066 100.048 51.949 98.4355 52.255C98.681 52.5959 99.0803 52.6776 99.4918 52.7614C100.32 52.9295 101.148 53.0986 101.976 53.2672C102.225 53.3176 102.488 53.3669 102.727 53.2826C102.748 52.4003 102.914 51.5179 103.072 50.6494Z" fill="#E09B7A"/>
<path d="M99.0815 52.2692C99.4893 52.5842 101.651 53.3266 103.005 53.2751C101.228 53.6776 99.2178 53.4586 97.6318 52.5916C99.4341 49.3057 99.5529 45.216 97.9431 41.8389C97.9431 41.8389 101.61 47.1699 99.0815 52.2692Z" fill="#343737"/>
<path d="M96.9463 56.8489C98.3228 58.3754 100.513 59.0048 102.559 58.8076C104.606 58.6108 106.519 57.6729 108.195 56.4819C104.768 58.0594 100.451 58.2455 96.9463 56.8489Z" fill="#343737"/>
<path d="M119.523 57.3655C123.026 57.0898 125.576 55.0123 126.94 53.2725C127.247 52.8802 127.494 52.5048 127.679 52.1718C128.679 50.3578 128.967 44.0665 126.392 42.6046C124.587 41.5818 123.273 43.0659 122.649 44.0485C122.649 44.05 122.649 44.0516 122.649 44.0516C122.383 44.4695 122.24 44.7956 122.24 44.7956L119.523 57.3655Z" fill="#FFBF90"/>
<path d="M119.523 57.3656C123.026 57.0899 125.576 55.0124 126.94 53.2727C127.059 53.095 127.162 52.9259 127.25 52.7652C128.25 50.9513 128.538 44.66 125.962 43.1997C124.501 42.3698 123.361 43.1864 122.648 44.0486C122.648 44.0502 122.648 44.0518 122.648 44.0518C122.382 44.4696 122.24 44.7957 122.24 44.7957L119.523 57.3656Z" fill="#E09B7A"/>
<path d="M127.203 47.6008C127.333 48.104 127.25 48.6284 127.085 49.1247C126.381 51.2361 124.273 52.847 122.254 54.3428C122.863 53.3189 123.086 52.163 122.962 51.0368C122.918 50.6449 122.834 50.2552 122.83 49.8623C122.815 48.2795 126.441 44.6267 127.203 47.6008Z" fill="#BA8267"/>
<path d="M121.241 54.9437C121.241 54.9437 121.28 54.9214 121.356 54.879C121.429 54.8344 121.547 54.7761 121.681 54.6849C121.952 54.5041 122.325 54.2146 122.677 53.7851C123.028 53.3572 123.345 52.7856 123.496 52.109C123.632 51.4345 123.604 50.6487 123.242 49.891C123.204 49.7945 123.15 49.7038 123.095 49.6142L123.055 49.5469C123.045 49.5299 123.051 49.5405 123.049 49.5384L123.05 49.5405L123.049 49.5395H123.048C123.048 49.5395 123.046 49.5426 123.054 49.5283L123.088 49.4679L123.155 49.3475C123.202 49.2685 123.248 49.1895 123.296 49.1126C123.487 48.8035 123.693 48.5129 123.904 48.243C124.116 47.9731 124.336 47.725 124.553 47.4975C124.772 47.2721 124.982 47.0606 125.191 46.9036C125.399 46.7456 125.629 46.6427 125.844 46.6152C126.06 46.5908 126.264 46.6396 126.4 46.7074C126.539 46.7769 126.616 46.8654 126.648 46.9317C126.681 46.998 126.679 47.0383 126.683 47.0378C126.683 47.0378 126.694 46.9996 126.677 46.9254C126.663 46.8517 126.607 46.7408 126.468 46.638C126.331 46.5383 126.116 46.445 125.83 46.4375C125.546 46.4354 125.239 46.5303 124.965 46.6852C124.688 46.8405 124.441 47.0357 124.179 47.2483C123.92 47.4636 123.656 47.7059 123.404 47.9763C123.152 48.2467 122.908 48.5437 122.686 48.866C122.63 48.9461 122.577 49.0288 122.524 49.1121L122.446 49.2383L122.344 49.417L122.273 49.5426C122.291 49.5845 122.319 49.6259 122.342 49.6678L122.444 49.847C122.49 49.9255 122.538 50.0039 122.57 50.0877C122.885 50.7447 122.955 51.4324 122.896 52.0486C122.823 52.6663 122.615 53.2151 122.362 53.6499C122.108 54.0852 121.818 54.4097 121.6 54.6229C121.493 54.7311 121.394 54.8047 121.335 54.8604C121.274 54.915 121.241 54.9437 121.241 54.9437Z" fill="#CF4A57"/>
<path d="M96.6594 78.9165C96.6594 78.9165 96.5693 79.5952 96.3996 80.8572C96.336 81.3185 96.2618 81.8647 96.1822 82.4803C96.0072 83.7634 95.7952 85.3643 95.5459 87.2418C95.4399 88.0107 95.3338 88.8273 95.2172 89.6862V89.6916C95.021 91.1709 94.8036 92.7775 94.5756 94.5008C94.2415 97.0248 93.8704 99.7874 93.4833 102.736C92.6084 109.315 91.6221 116.819 90.5988 124.656C89.989 129.306 89.3686 134.073 88.7535 138.834C88.5202 140.637 88.2869 142.44 88.0536 144.232C87.7355 146.724 87.4173 149.201 87.1045 151.644V151.65C86.7227 154.683 86.3409 157.663 85.9804 160.564V160.569C85.2486 166.391 84.5699 171.874 83.9867 176.741V176.747C83.8329 178.051 83.6844 179.319 83.5413 180.527C83.3981 181.742 83.2655 182.908 83.1383 184.016H68.2862L69.0763 179.276L70.5026 170.74V170.734L73.7583 151.237L73.9916 149.847L74.6014 146.21L77.3905 129.507L77.189 129.423L66.9765 125.112L63.127 123.484C63.127 123.484 63.9382 121.315 65.1843 117.991C65.7676 116.448 66.4463 114.656 67.178 112.715C68.9225 108.118 70.9957 102.694 72.9046 97.7682C74.0128 94.9309 75.068 92.2585 75.98 90.0161C77.295 86.7657 78.3131 84.4061 78.7373 83.7327C80.1848 81.4314 89.8087 79.846 94.3264 79.215C94.74 79.1615 95.1058 79.109 95.424 79.0713H95.4293C96.1451 78.9759 96.5905 78.9234 96.6541 78.9176C96.6594 78.9165 96.6594 78.9165 96.6594 78.9165Z" fill="#6937A4"/>
<path d="M153.114 89.8974L152.775 91.2765L151.317 97.1834L149.705 103.711V103.716L148.188 109.877L146.078 118.419L143.586 128.531C143.649 130.71 143.734 133.717 143.824 137.285C143.899 140.011 143.978 143.07 144.058 146.342C144.1 147.98 144.137 149.677 144.18 151.416C144.249 154.396 144.323 157.493 144.392 160.632C144.577 168.585 144.747 176.788 144.874 184.015H114.539C114.311 176.757 114.136 167.345 114.226 156.962C114.248 154.004 114.295 150.965 114.369 147.879C114.523 141.628 114.788 135.169 115.202 128.727C115.361 126.267 115.541 123.806 115.748 121.362C115.897 119.58 116.061 117.804 116.241 116.044C116.915 109.336 117.795 102.819 118.93 96.764V96.7587C119.089 95.8944 119.253 95.0466 119.428 94.2029V94.1976C121.029 86.35 123.092 79.388 125.733 73.9424C125.733 73.9424 125.738 73.9424 125.748 73.9477C125.961 73.9901 128.543 74.5628 132.117 75.7929C134.529 76.6206 137.393 77.7548 140.288 79.2395C142.509 80.3689 144.742 81.7051 146.799 83.264C149.275 85.1411 151.492 87.3421 153.114 89.8974Z" fill="#6937A4"/>
<path d="M132.807 32.9345C131.606 33.2707 130.316 33.7718 129.012 34.1832C128.656 37.1547 127.599 40.009 125.87 42.7673C124.141 43.1926 122.453 44.1189 121.231 45.4297C121.094 41.7243 120.792 38.0874 120.415 34.4372C114.211 33.319 108.283 30.3135 104.104 25.7779C102.725 28.5431 100.145 30.7181 97.1396 31.6444C98.9307 30.0113 99.9599 27.6098 99.9048 25.2147C99.2393 27.0128 97.5855 28.2684 96.0213 29.4142C92.0137 32.3513 85.6943 37.2502 80.3145 34.6843C80.3627 34.6223 80.4104 34.5608 80.4518 34.4987C81.1448 33.5793 81.7074 32.7283 82.0987 31.5893C83.0245 28.8925 83.8687 26.1686 84.6306 23.4241C85.2484 21.2215 85.8523 18.9155 87.4096 17.2139C89.3514 15.1004 92.3981 14.332 95.3007 14.0781C96.4534 13.9752 98.0797 14.2361 99.198 14.4556C104.324 12.0605 110.273 10.5032 115.33 11.7726C120.271 12.9667 124.518 16.6031 126.391 21.221C126.474 21.4129 126.543 21.6123 126.611 21.8042C127.434 23.4374 128.08 25.1458 128.505 26.8479C128.628 27.3283 128.731 27.8013 128.814 28.2748C128.848 28.4667 128.882 28.6592 128.91 28.8511C129.754 30.602 131.009 32.1869 132.807 32.9345Z" fill="#262626"/>
<path d="M124.833 30.2712C117.621 27.7669 110.039 25.0086 105.153 19.1484C104.172 20.1638 103.191 21.1792 102.217 22.1951C102.457 20.8637 102.326 19.4644 101.853 18.2014C96.7614 25.7838 89.0968 31.5889 80.4512 34.4978C81.1442 33.5784 81.7068 32.7273 82.0981 31.5884C82.7222 29.7633 83.3124 27.9308 83.8548 26.0781C84.1295 25.2 84.3829 24.3081 84.63 23.4226C85.2477 21.22 85.8517 18.914 87.409 17.2125C89.3507 15.0989 92.3975 14.3306 95.3001 14.0766C96.4528 13.9737 98.0791 14.2346 99.1973 14.4541C104.323 12.059 110.272 10.5017 115.329 11.7711C119.254 12.7181 122.74 15.2087 124.943 18.5025C125.519 19.3605 126.006 20.2661 126.391 21.2195C126.473 21.4114 126.542 21.6108 126.61 21.8028C127.434 23.4359 128.079 25.1443 128.504 26.8464C128.628 27.3268 128.731 27.7998 128.813 28.2733C126.576 28.0745 124.367 27.6211 122.233 26.9281C122.705 28.2887 123.632 29.4828 124.833 30.2712Z" fill="#1B1B1B"/>
<path d="M116.936 16.5972C117.807 17.7224 118.48 18.9918 118.912 20.3434C114.315 19.3349 109.429 18.1615 106.19 14.7441C105.573 15.787 104.729 16.6927 103.727 17.3719C103.61 16.3496 103.212 15.3687 102.588 14.5585C97.6402 18.2983 92.6448 22.0651 87.0528 24.7688C86.1679 25.1946 85.049 25.6882 83.8555 26.0796C84.1301 25.2015 84.3836 24.3096 84.6307 23.4241C85.2484 21.2215 85.8524 18.9155 87.4097 17.2139C89.3514 15.1004 92.3982 14.332 95.3007 14.0781C96.4535 13.9752 98.0797 14.2361 99.198 14.4556C104.324 12.0605 110.273 10.5032 115.33 11.7726C119.255 12.7196 122.741 15.2101 124.943 18.504C122.22 18.1408 119.53 17.5029 116.936 16.5972Z" fill="#262626"/>
<path d="M77.3921 129.507L73.9954 149.852C73.9954 149.852 62.749 146.414 63.1265 142.983C63.408 140.41 65.4389 131.634 66.4272 127.414C66.7565 126.007 66.976 125.108 66.976 125.108L77.3921 129.507Z" fill="#E09B7A"/>
<path d="M124.34 123.4C124.34 123.4 75.4361 152.123 73.9673 151.341C72.664 150.641 66.8314 148.562 64.4018 146.325C64.0932 146.051 63.8392 145.769 63.661 145.481C62.0348 142.949 64.9442 133.85 64.9442 133.85C64.9442 133.85 95.5683 122.665 111.59 117.491C116.428 115.933 119.934 114.918 120.86 114.932L124.34 123.4Z" fill="#E09B7A"/>
<path d="M124.34 123.4C124.34 123.4 75.4367 152.123 73.9679 151.34C72.6646 150.641 66.8319 148.562 64.4023 146.325C67.1744 146.791 70.2212 147.319 71.0993 147.553C72.8146 148.012 107.81 128.456 110.437 126.398C112.187 125.033 111.947 120.428 111.59 117.491C116.428 115.933 119.934 114.918 120.86 114.932L124.34 123.4Z" fill="#BA8267"/>
<path d="M70.9812 132.004L74.1854 129.314L66.4248 127.414C66.7541 126.007 66.9736 125.108 66.9736 125.108L77.3897 129.507L70.9812 132.004Z" fill="#FFBF90"/>
<path d="M140.355 131.469C140.183 131.812 139.915 132.464 139.572 133.287C138.454 136.005 136.56 140.581 134.632 141.858C132.985 142.942 128.512 142.118 125.609 141.419C124.079 141.055 122.988 140.719 122.988 140.719C122.988 140.719 108.51 102.568 104.427 89.2899H104.42C103.755 87.1149 103.363 85.6053 103.363 85.0427L104.166 84.6996L111.789 81.4614C111.789 81.4614 111.989 81.7907 112.352 82.4015C112.585 82.7923 112.894 83.294 113.258 83.8974C119.186 93.7434 141.02 130.193 140.355 131.469Z" fill="#E09B7A"/>
<path d="M113.38 83.8209L113.256 83.8967L112.385 84.4249L106.903 87.7733L104.426 89.2893H104.419L100.995 86.5448L97.0978 83.4158C97.0978 83.4158 93.859 80.2598 94.1539 79.5869C94.4418 78.9141 95.9312 75.8678 95.9312 75.8678C95.9312 75.8678 94.1607 74.0358 94.0923 73.5825C94.0308 73.1297 96.0755 69.9318 96.0755 69.9318C96.0755 69.9318 93.0287 66.508 93.2694 65.6432C93.5027 64.8404 94.779 63.2687 95.8565 63.2417C95.9318 63.2417 96.0002 63.2491 96.0755 63.2624C96.5972 63.3589 99.2458 65.184 101.942 67.1119C101.949 67.1188 101.956 67.1188 101.956 67.1188C105.064 69.3358 108.221 71.689 108.221 71.689C108.221 71.689 107.432 67.4137 107.418 66.7694C107.397 66.0626 108.042 65.0747 108.729 64.6765C108.961 64.5392 109.202 64.4639 109.422 64.4978C110.293 64.6214 112.756 73.2262 113.147 74.3312C113.544 75.4362 113.38 83.8209 113.38 83.8209Z" fill="#E09B7A"/>
<path d="M140.355 131.468C140.183 131.811 139.916 132.464 139.573 133.287L112.407 85.2276C112.407 85.2276 112.4 84.9259 112.387 84.4243C112.38 83.9168 112.366 83.21 112.352 82.4003C112.291 79.2852 112.242 74.6604 112.407 74.3656C112.599 74.0087 109.903 67.4836 108.729 64.677C108.962 64.5397 109.203 64.4644 109.423 64.4983C110.294 64.6219 112.757 73.2266 113.148 74.3317C113.546 75.4362 113.381 83.8209 113.381 83.8209L113.258 83.8967C119.186 93.7433 141.02 130.193 140.355 131.468Z" fill="#BA8267"/>
<path d="M98.1264 71.7175C97.715 71.5463 97.3374 71.3607 96.9254 71.1889C96.2732 71.8755 95.6147 72.7536 95.1894 73.5978C95.7727 74.2489 96.5617 74.8942 97.3099 75.3476C97.5363 75.3338 97.7287 75.1964 97.9414 75.1206C98.2431 75.004 98.5724 74.9764 98.881 75.039C98.627 75.3953 98.3804 75.7452 98.1264 76.0952C97.9552 76.3354 97.7834 76.5687 97.6391 76.8227C97.392 77.2479 97.2139 77.7077 97.1041 78.1881C96.857 77.9479 96.6306 77.6393 96.5553 77.31C96.514 77.118 96.5002 76.9118 96.3841 76.7538C95.9858 77.5428 95.6221 78.3736 95.375 79.2242C96.926 81.8589 98.8269 84.3633 100.995 86.5457L97.0978 83.4168C97.0978 83.4168 93.859 80.2608 94.1539 79.5879C94.4418 78.915 95.9312 75.8688 95.9312 75.8688C95.9312 75.8688 94.1607 74.0368 94.0923 73.5834C94.0308 73.1306 96.0755 69.9327 96.0755 69.9327C96.0755 69.9327 93.0287 66.509 93.2694 65.6441C93.5027 64.8414 94.779 63.2697 95.8565 63.2427C95.9318 63.2427 96.0002 63.2501 96.0755 63.2634C96.5972 63.3599 99.2458 65.185 101.942 67.1129C101.682 66.9623 97.4408 64.5402 96.6587 64.6155C95.8421 64.6839 95.0325 65.8642 95.0325 65.8642L98.2028 70.1326C98.2028 70.1326 100.989 69.4327 101.675 69.9333C100.94 70.393 100.206 70.8946 99.6095 71.5256C99.0056 72.1566 98.5321 72.9254 98.347 73.769C98.0575 73.138 98.0851 72.4169 98.1264 71.7175Z" fill="#BA8267"/>
<path d="M140.354 131.469L142.593 125.108L130.599 113.17L140.354 131.469Z" fill="#BA8267"/>
<path d="M142.594 125.107L143.566 126.034C143.566 126.034 140.536 118.935 137.048 114.931C133.56 110.927 127.347 107.586 127.347 107.586L130.6 113.169L142.594 125.107Z" fill="#3E2061"/>
<path d="M77.3926 129.507L84.4983 101.218C84.4983 101.218 78.0628 110.564 77.3926 129.507Z" fill="#3E2061"/>
<path d="M87.1038 151.644V151.65C86.722 154.683 86.3403 157.663 85.9797 160.563V160.568C85.5449 160.717 85.0836 160.786 84.6011 160.77C83.2702 160.77 82.0877 160.213 81.128 159.328C80.5182 158.713 80.094 157.991 79.8607 157.159C79.8024 156.724 79.7441 156.284 79.6857 155.849C79.6592 155.17 79.8024 154.539 80.1099 153.956C80.3061 153.346 80.6455 152.816 81.128 152.371C81.5734 151.894 82.0983 151.554 82.7081 151.353C83.2967 151.045 83.9277 150.907 84.6011 150.934C85.5131 150.933 86.3562 151.194 87.1038 151.644Z" fill="#3E2061"/>
<path d="M77.942 163.216C77.3046 163.216 76.6354 163.493 76.1847 163.943C75.7536 164.374 75.4291 165.082 75.4567 165.701C75.5172 167.047 76.549 168.187 77.9425 168.187C78.5798 168.187 79.249 167.909 79.6997 167.459C80.1308 167.028 80.4553 166.32 80.4277 165.702C80.3673 164.354 79.3354 163.216 77.942 163.216Z" fill="#3E2061"/>
<path d="M144.391 160.631C144.375 160.647 144.354 160.658 144.332 160.668C144.274 160.695 144.216 160.722 144.157 160.747C143.664 161.034 143.15 161.235 142.609 161.347C142.249 161.426 141.877 161.469 141.496 161.469C141.029 161.405 140.562 161.341 140.096 161.283C139.406 161.118 138.813 160.801 138.298 160.334C137.906 160.101 137.588 159.788 137.354 159.39C136.888 158.881 136.575 158.282 136.411 157.598C136.347 157.125 136.283 156.659 136.22 156.193C136.193 155.466 136.347 154.788 136.676 154.162C136.888 153.505 137.254 152.942 137.768 152.465C137.81 152.417 137.858 152.375 137.901 152.333C138.563 151.676 139.348 151.219 140.244 150.97C140.949 150.748 141.655 150.716 142.36 150.874C142.636 150.886 142.906 150.928 143.171 150.996C143.521 151.086 143.855 151.224 144.179 151.415C144.248 154.396 144.322 157.492 144.391 160.631Z" fill="#3E2061"/>
<path d="M127.948 155.013C122.382 155.013 122.373 163.663 127.948 163.663C133.514 163.662 133.523 155.013 127.948 155.013Z" fill="#3E2061"/>
<path d="M120.876 152.445C120.902 153.113 120.764 153.733 120.462 154.311C120.266 154.91 119.932 155.435 119.46 155.869C119.02 156.342 118.5 156.676 117.896 156.872C117.323 157.18 116.697 157.318 116.029 157.291H115.945C115.335 157.291 114.762 157.174 114.227 156.962C114.248 154.004 114.295 150.965 114.37 147.879C114.858 147.667 115.388 147.577 115.945 147.598H116.029C117.344 147.598 118.511 148.144 119.46 149.019C120.059 149.624 120.473 150.334 120.706 151.156C120.764 151.586 120.823 152.015 120.876 152.445Z" fill="#3E2061"/>
<path d="M52.9113 36.5092C52.9686 23.1848 42.2137 12.3368 28.8896 12.2795C15.5655 12.2222 4.71768 22.9773 4.66038 36.3017C4.60309 49.6262 15.358 60.4742 28.6821 60.5315C42.0062 60.5888 52.854 49.8336 52.9113 36.5092Z" fill="white"/>
<path d="M45.5314 36.4188C45.5314 45.6593 38.0401 53.15 28.7996 53.15C19.5591 53.15 12.0684 45.6593 12.0684 36.4188C12.0684 27.1783 19.5591 19.687 28.7996 19.687C38.0401 19.687 45.5314 27.1783 45.5314 36.4188Z" fill="#E5415D"/>
<path d="M42.6074 36.419C42.6074 44.0454 36.4248 50.228 28.7983 50.228C21.1719 50.228 14.9893 44.0454 14.9893 36.419C14.9893 28.7925 21.1719 22.6099 28.7983 22.6099C36.4248 22.6099 42.6074 28.7925 42.6074 36.419Z" fill="white"/>
<path d="M39.5073 36.4187C39.5073 42.3325 34.7128 47.1269 28.799 47.1269C22.8853 47.1269 18.0908 42.3325 18.0908 36.4187C18.0908 30.5044 22.8847 25.7104 28.799 25.7104C34.7134 25.7104 39.5073 30.5044 39.5073 36.4187Z" fill="#E5415D"/>
<path d="M36.3718 36.4185C36.3718 40.6005 32.9814 43.9904 28.7994 43.9904C24.6179 43.9904 21.2275 40.6 21.2275 36.4185C21.2275 32.2365 24.6179 28.8467 28.7994 28.8467C32.9814 28.8467 36.3718 32.2365 36.3718 36.4185Z" fill="white"/>
<path d="M33.4092 36.4185C33.4092 38.9642 31.3455 41.0279 28.7998 41.0279C26.2541 41.0279 24.1904 38.9642 24.1904 36.4185C24.1904 33.8728 26.2541 31.8091 28.7998 31.8091C31.3455 31.8091 33.4092 33.8728 33.4092 36.4185Z" fill="#E5415D"/>
<path d="M34.8291 42.4683V48.4637L40.0196 53.6548V47.6402L34.8291 42.4683Z" fill="#FFBC00"/>
<path d="M34.8486 42.4492H40.8441L46.0346 47.6398H40.0201L34.8486 42.4492Z" fill="#FFBC00"/>
<path d="M41.3822 50.3726C41.0318 50.3726 40.6807 50.2389 40.4135 49.9712L27.3261 36.8832C26.7911 36.3482 26.7911 35.4807 27.3261 34.9457C27.8605 34.4107 28.7286 34.4107 29.263 34.9457L42.3505 48.0337C42.8855 48.5681 42.8855 49.4361 42.3505 49.9706C42.0832 50.2389 41.7327 50.3726 41.3822 50.3726Z" fill="#343737"/>
<path d="M64.8228 62.0988C64.4829 60.8861 63.8694 59.8341 62.9823 58.9406C62.4993 58.5679 62.0167 58.1951 61.5337 57.8218C60.4175 57.1744 59.2133 56.8488 57.9217 56.8446C56.9365 56.8075 56.017 57.0127 55.1644 57.4613C54.2773 57.7497 53.5095 58.2434 52.861 58.9406C52.1632 59.5891 51.6701 60.3569 51.3811 61.244C50.9331 62.0966 50.7279 63.0161 50.765 64.0013L51.0206 65.9038C51.3605 67.1159 51.974 68.169 52.861 69.0614C53.3441 69.4347 53.8266 69.8074 54.3097 70.1802C55.4258 70.8281 56.63 71.1537 57.9217 71.1574C58.9069 71.1945 59.8258 70.9893 60.6789 70.5413C61.566 70.2528 62.3338 69.7592 62.9823 69.0614C63.6801 68.4134 64.1732 67.6456 64.4617 66.7585C64.9097 65.9059 65.1149 64.9865 65.0783 64.0013L64.8228 62.0988Z" fill="white"/>
<path d="M76.2114 66.8317C75.451 66.1339 74.5167 65.6938 73.4636 65.6938C72.4673 65.6938 71.4206 66.1271 70.7159 66.8317C70.3368 67.1833 70.069 67.6001 69.9121 68.0821C69.6692 68.545 69.5574 69.0444 69.5775 69.5789C69.6226 70.5843 69.9529 71.6262 70.7154 72.3266C71.4758 73.0244 72.4101 73.4645 73.4631 73.4645C74.4594 73.4645 75.5061 73.0313 76.2108 72.3266C76.5899 71.9751 76.8577 71.5583 77.0147 71.0763C77.2581 70.6134 77.3694 70.1145 77.3493 69.5795C77.3047 68.5741 76.9749 67.5317 76.2114 66.8317Z" fill="white"/>
<path d="M85.8948 67.6704C82.2245 67.6704 82.2181 73.3748 85.8948 73.3748C89.5651 73.3748 89.571 67.6704 85.8948 67.6704Z" fill="white"/>
<path d="M135.914 22.2441C135.318 22.2441 134.692 22.5034 134.271 22.925C133.868 23.328 133.564 23.9892 133.59 24.5682C133.647 25.827 134.611 26.8922 135.914 26.8922C136.51 26.8922 137.136 26.633 137.558 26.2114C137.961 25.8084 138.264 25.1472 138.239 24.5682C138.182 23.3089 137.217 22.2441 135.914 22.2441Z" fill="white"/>
<path d="M141.088 47.0235C140.316 46.3151 139.368 45.8687 138.299 45.8687C137.288 45.8687 136.226 46.3088 135.511 47.0235C135.126 47.3809 134.854 47.804 134.695 48.2929C134.449 48.7627 134.335 49.2691 134.356 49.8126C134.402 50.8322 134.737 51.8901 135.511 52.6011C136.282 53.3095 137.231 53.7565 138.299 53.7565C139.31 53.7565 140.373 53.3164 141.088 52.6011C141.473 52.2438 141.744 51.8212 141.903 51.3317C142.15 50.8619 142.263 50.3556 142.243 49.8126C142.198 48.7924 141.863 47.7346 141.088 47.0235Z" fill="white"/>
<path d="M158.682 54.9468C158.407 53.968 157.912 53.1191 157.197 52.3985C156.807 52.0973 156.417 51.7961 156.028 51.4955C155.127 50.9732 154.156 50.7102 153.113 50.707C152.318 50.6773 151.577 50.8427 150.888 51.2044C150.172 51.4371 149.553 51.8354 149.03 52.3985C148.467 52.9213 148.068 53.5406 147.836 54.2564C147.474 54.9452 147.309 55.6865 147.338 56.4813C147.407 56.993 147.476 57.5052 147.545 58.0164C147.819 58.9947 148.314 59.8436 149.03 60.5647C149.42 60.8654 149.809 61.1665 150.198 61.4677C151.099 61.9895 152.071 62.2525 153.113 62.2557C153.908 62.2859 154.65 62.1199 155.338 61.7583C156.054 61.5255 156.674 61.1273 157.197 60.5642C157.76 60.0414 158.158 59.4215 158.391 58.7057C158.752 58.0174 158.918 57.2762 158.888 56.4808C158.82 55.9702 158.751 55.4585 158.682 54.9468Z" fill="white"/>
<path d="M212.474 63.2422C212.474 76.5666 201.673 87.3682 188.348 87.3682C175.024 87.3682 164.223 76.5666 164.223 63.2422C164.223 49.9183 175.024 39.1167 188.348 39.1167C201.673 39.1167 212.474 49.9183 212.474 63.2422Z" fill="white"/>
<path d="M181.38 64.4352C178.754 63.4951 176.918 61.9043 175.921 59.706C174.196 55.902 175.67 51.7025 175.735 51.5254L176.121 50.4517L182.186 53.964L181.261 55.6772L177.214 53.3335C176.949 54.6422 176.726 56.8771 177.639 58.8783C178.412 60.5745 179.881 61.82 182.002 62.5799L181.38 64.4352Z" fill="#EC8B1E"/>
<path d="M194.573 64.2354C197.266 63.5132 199.227 62.0778 200.399 59.9685C202.429 56.3178 201.303 52.0117 201.253 51.8304L200.956 50.7285L194.625 53.7339L195.407 55.5171L199.632 53.5118C199.788 54.8379 199.828 57.0835 198.756 59.004C197.846 60.6313 196.281 61.7528 194.104 62.3366L194.573 64.2354Z" fill="#FFBC00"/>
<path d="M190.265 74.8268C188.967 75.5686 187.742 75.558 186.893 75.3958C186.18 75.2584 185.73 75.014 185.73 75.014C187.099 73.4752 187.159 64.1637 187.159 64.1637L190.604 63.8726C190.441 64.5136 190.36 65.2167 190.33 65.9421C190.206 69.3436 190.265 74.8268 190.265 74.8268Z" fill="#FFBC00"/>
<path d="M190.33 65.9426C188.679 68.1628 186.742 72.6062 186.893 75.3958C186.18 75.2584 185.73 75.014 185.73 75.014C187.099 73.4752 187.159 64.1637 187.159 64.1637L190.604 63.8726C190.441 64.5142 190.36 65.2173 190.33 65.9426Z" fill="#EC8B1E"/>
<path d="M195.517 77.7654C187.89 82.1865 180.833 77.1646 180.833 77.1646C181.061 76.9647 181.288 76.7812 181.509 76.6089C187.961 71.5122 192.932 75.1497 194.757 76.9361C195.25 77.4191 195.517 77.7654 195.517 77.7654Z" fill="#FFBC00"/>
<path d="M195.517 77.7658C187.89 82.187 180.833 77.1651 180.833 77.1651C181.061 76.9652 181.288 76.7817 181.509 76.6094C183.585 77.7563 185.777 78.4901 188.303 78.505C190.561 78.5145 192.818 77.9578 194.757 76.9365C195.25 77.4196 195.517 77.7658 195.517 77.7658Z" fill="#EC8B1E"/>
<path d="M190.78 77.5025C191.361 77.354 191.931 77.1032 192.132 76.6647C192.325 76.2458 192.071 75.7442 191.674 75.4606C190.932 74.9314 189.758 74.829 188.852 74.7686C187.735 74.6938 186.552 74.6201 185.451 74.829C183.728 75.1567 183.701 76.3795 185.353 77.082C187.022 77.7915 189.011 77.9548 190.78 77.5025Z" fill="#FFCC5E"/>
<path d="M197.648 63.6124C197.452 64.5758 193.86 67.4185 189.875 68.0648C189.404 68.1438 188.924 68.1879 188.441 68.1979C188.385 68.2006 188.328 68.2032 188.271 68.2006C183.688 68.1947 180.245 65.5361 179.846 63.7428C179.446 61.9496 181.853 49.4687 181.853 49.4687C186.494 48.7407 196.233 49.0753 196.233 49.0753C196.233 49.0753 196.286 49.4995 196.366 50.1999C196.494 51.2551 196.689 52.9423 196.894 54.7664C197.319 58.5777 197.767 63.0037 197.648 63.6124Z" fill="#FFBC00"/>
<path d="M182.661 51.3421C182.661 51.3421 177.822 63.5032 188.441 68.1979C188.385 68.2006 188.328 68.2032 188.271 68.2006C183.688 68.1947 180.245 65.5361 179.846 63.7428C179.446 61.9496 181.853 49.4687 181.853 49.4687C186.494 48.7407 196.233 49.0753 196.233 49.0753C196.233 49.0753 196.286 49.4995 196.366 50.1999C194.157 52.4116 189.454 55.4923 182.661 51.3421Z" fill="#EC8B1E"/>
<path d="M181.852 49.4681C181.852 49.4681 188.166 43.9594 196.233 49.0747C196.233 49.0747 188.956 53.5632 181.852 49.4681Z" fill="#FFBC00"/>
<path d="M194.498 49.4266C194.498 49.4266 193.486 49.8959 191.897 50.2432C190.313 50.5809 188.157 50.802 185.864 50.3004C185.11 50.1324 184.339 49.8895 183.573 49.5491C183.573 49.5491 188.327 46.4106 194.498 49.4266Z" fill="#EC8B1E"/>
<path d="M191.896 50.2424C190.312 50.5801 188.156 50.8012 185.863 50.2996C187.346 49.8749 189.448 49.6124 191.896 50.2424Z" fill="#D1730C"/>
<path d="M197.648 63.6129C197.452 64.5763 193.86 67.4189 189.875 68.0653C188.693 66.9179 187.683 65.5811 186.896 64.115C186.422 63.2321 186.02 62.2883 185.91 61.2819C185.711 59.4383 186.554 57.5633 187.891 56.3273C189.228 55.0908 191.009 54.4572 192.793 54.3045C194.174 54.1841 195.572 54.3495 196.893 54.7668C197.319 58.5782 197.767 63.0041 197.648 63.6129Z" fill="#FFCC5E"/>
<path d="M156.302 29.4327C164.43 29.4327 171.019 22.8439 171.019 14.7163C171.019 6.58873 164.43 0 156.302 0C148.175 0 141.586 6.58873 141.586 14.7163C141.586 22.8439 148.175 29.4327 156.302 29.4327Z" fill="white"/>
<path d="M163.42 5.36475H149.187V24.068H159.423L163.42 20.2232V5.36475Z" fill="#B6B1FF"/>
<path d="M159.422 24.0679L163.419 20.2231H159.422V24.0679Z" fill="#9E8CFF"/>
<path d="M161.139 8.04492H151.469V9.15313H161.139V8.04492Z" fill="#9E8CFF"/>
<path d="M161.139 10.4658H151.469V11.574H161.139V10.4658Z" fill="#9E8CFF"/>
<path d="M161.139 12.8877H151.469V13.9959H161.139V12.8877Z" fill="#9E8CFF"/>
<path d="M161.139 15.3086H151.469V16.4163H161.139V15.3086Z" fill="#9E8CFF"/>
<path d="M161.139 17.73H151.469V18.8382H161.139V17.73Z" fill="#9E8CFF"/>
<path d="M46.8051 85.3101L44.8135 93.9196H64.6763L46.8051 85.3101Z" fill="#8746D2"/>
<path d="M61.332 81.3691L57.71 85.2744L68.0979 91.2285L61.332 81.3691Z" fill="#8746D2"/>
<path d="M49.8906 101.651L52.6564 106.204L61.2245 97.8408L49.8906 101.651Z" fill="#8746D2"/>
<path d="M175.917 115.64L172.947 107.317L156.226 118.037L175.917 115.64Z" fill="#8746D2"/>
<path d="M165.814 126.797L166.755 121.554L154.797 122.149L165.814 126.797Z" fill="#8746D2"/>
<path d="M164.499 103.547L159.714 101.208L157.014 112.872L164.499 103.547Z" fill="#8746D2"/>
</svg>
