<svg width="192" height="165" viewBox="0 0 192 165" fill="none" xmlns="http://www.w3.org/2000/svg">
<path d="M82.5437 68.5986C90.7689 73.3987 101.464 73.656 109.91 69.2571C120.159 88.9925 120.85 113.252 123.817 135.291C125.303 146.331 127.681 157.25 130.922 167.907C112.102 173.318 91.9198 174.441 72.9258 169.678" fill="#F7F7F7"/>
<path d="M84.0029 48.7134L84.3762 55.8505C84.6065 59.0406 82.545 61.9471 79.4582 62.7851L69.0488 66.6701C69.0488 66.6701 83.8397 80.6441 101.836 76.0879C119.832 71.5317 121.979 65.9533 121.979 65.9533L111.009 61.3042C108.796 60.5219 106.449 56.4661 105.98 54.1655L103.362 41.3218L84.0029 48.7134Z" fill="#E09B7A"/>
<path d="M64.5264 120.173C64.9112 117.581 65.9338 110.69 66.3186 108.098" stroke="#3E2061" stroke-width="0.331915" stroke-miterlimit="10"/>
<path d="M112.719 34.8369C112.358 44.0291 103.906 55.3007 93.9019 54.9079C83.8979 54.5152 76.1302 42.6066 76.4916 33.4141C76.8526 24.2218 82.6196 11.745 95.32 12.1584C107.73 12.5627 113.08 25.6447 112.719 34.8369Z" fill="#E09B7A"/>
<path d="M101.377 25.5363C100.634 25.5062 99.841 25.5669 99.2378 26.0014C98.6342 26.4358 98.3312 27.3552 98.7779 27.9497C99.2319 28.5533 100.126 28.5239 100.88 28.4766C102.103 28.4004 103.333 28.4338 104.551 28.5739C105.772 28.7149 107.019 29.251 108.218 29.336C109.231 29.4079 108.388 28.4123 107.941 28.0231C107.116 27.3051 106.095 26.7523 105.087 26.3437C103.908 25.8668 102.648 25.5876 101.377 25.5363Z" fill="#262626"/>
<path d="M88.7036 25.5363C89.4466 25.5062 90.2393 25.5669 90.8425 26.0014C91.4462 26.4358 91.7492 27.3552 91.3024 27.9497C90.8485 28.5533 89.9542 28.5239 89.2008 28.4766C87.9773 28.4004 86.747 28.4338 85.529 28.5739C84.3083 28.7149 83.0621 29.251 81.862 29.336C80.8489 29.4079 81.692 28.4123 82.1392 28.0231C82.964 27.3051 83.985 26.7523 84.9937 26.3437C86.1724 25.8668 87.4324 25.5876 88.7036 25.5363Z" fill="#262626"/>
<path d="M94.3189 32.2769C94.3189 32.2769 94.3189 35.6175 92.7793 39.4767C94.2371 40.2217 96.1191 40.0426 97.4101 39.0359" stroke="#CB7E55" stroke-width="0.387473" stroke-miterlimit="10" stroke-linecap="round" stroke-linejoin="round"/>
<path d="M88.3501 40.3178C87.9816 41.8297 86.4574 42.7566 84.9452 42.3884C83.4334 42.0199 82.5065 40.4957 82.8746 38.9839C83.2431 37.4721 84.7673 36.5448 86.2795 36.9133C87.7918 37.2814 88.7187 38.806 88.3501 40.3178Z" fill="#C87C60"/>
<path d="M107.005 39.39C106.637 40.9019 105.112 41.8288 103.601 41.4606C102.089 41.0921 101.161 39.5679 101.53 38.0557C101.899 36.5435 103.423 35.6166 104.935 35.9851C106.447 36.3536 107.374 37.8778 107.005 39.39Z" fill="#C87C60"/>
<path d="M89.5236 33.7366C88.6503 32.596 87.2302 31.8951 85.7938 31.8955C84.3574 31.8955 82.9373 32.5972 82.0645 33.7378" stroke="black" stroke-width="0.702153" stroke-miterlimit="10" stroke-linecap="round"/>
<path d="M99.9004 33.7366C100.774 32.596 102.194 31.8951 103.63 31.8955C105.067 31.8955 106.487 32.5972 107.36 33.7378" stroke="black" stroke-width="0.702153" stroke-miterlimit="10" stroke-linecap="round"/>
<path d="M76.0482 33.0368C75.1042 29.9552 74.1599 26.8274 74.0689 23.6067C73.9772 20.3567 74.86 16.943 77.1447 14.6294L76.8043 14.5742C76.1197 14.4634 75.7432 13.7148 76.0617 13.0985C77.9421 9.45806 81.4622 6.67979 85.4628 5.76283L84.4557 5.55752C83.6539 5.3943 83.356 4.39196 83.9493 3.82805C86.8337 1.0883 91.0396 -0.177731 95.0553 0.0200366C97.7112 0.151087 100.399 0.890927 102.5 2.52151C104.601 4.1521 106.033 6.75603 105.862 9.41C105.691 12.064 103.706 14.6103 101.084 15.0535C100.353 16.0042 98.961 16.4732 97.7625 16.5078C96.564 16.5423 95.3801 16.2727 94.1872 16.1516C90.0567 15.7322 85.7717 17.1952 82.7604 20.0537C79.749 22.9118 78.0648 27.1145 78.2681 31.2613C78.3039 31.9932 78.3749 32.7993 77.9405 33.3875C77.4187 34.0928 76.3051 33.8751 76.0482 33.0368Z" fill="#262626"/>
<path d="M112.837 34.4111C115.56 28.8486 115.676 22.0753 113.145 16.423C113.604 16.4052 114.064 16.3877 114.523 16.3698C114.805 13.8827 113.528 11.2859 111.387 9.98966C109.246 8.69345 106.353 8.76612 104.28 10.1688C102.205 11.5726 100.135 14.9529 101.41 17.1097C102.194 18.4345 103.61 19.2232 104.837 20.152C109.154 23.4192 111.461 29.1485 110.613 34.4953C111.153 34.7471 112.336 34.734 112.837 34.4111Z" fill="#262626"/>
<path d="M78.3609 35.8162C78.2609 38.3653 76.3769 40.3609 74.1526 40.2735C71.9287 40.1862 70.2068 38.0488 70.3069 35.5001C70.407 32.951 72.2909 30.9554 74.5152 31.0428C76.7391 31.1302 78.461 33.2671 78.3609 35.8162Z" fill="#E09B7A"/>
<path d="M75.5367 35.4584C74.586 34.9898 73.6611 34.4692 72.7676 33.8989" stroke="black" stroke-width="0.702153" stroke-miterlimit="10" stroke-linecap="round"/>
<path d="M73.7578 37.3101C73.817 36.4301 73.8766 35.5504 73.9357 34.6704" stroke="black" stroke-width="0.702153" stroke-miterlimit="10" stroke-linecap="round"/>
<path d="M109.834 36.6842C109.734 39.2333 111.456 41.3702 113.68 41.4576C115.904 41.545 117.788 39.5494 117.888 37.0003C117.988 34.4512 116.266 32.3143 114.043 32.2269C111.819 32.1395 109.935 34.1351 109.834 36.6842Z" fill="#E09B7A"/>
<path d="M112.679 36.5494C113.663 36.1571 114.626 35.7103 115.561 35.2119" stroke="black" stroke-width="0.702153" stroke-miterlimit="10" stroke-linecap="round"/>
<path d="M114.307 38.5339C114.317 37.6523 114.327 36.7703 114.336 35.8887" stroke="black" stroke-width="0.702153" stroke-miterlimit="10" stroke-linecap="round"/>
<path d="M98.9363 41.7773C99.2877 41.6506 99.6412 41.5077 100.014 41.4866C100.387 41.4656 100.793 41.5911 101.001 41.9012C101.228 42.2384 101.166 42.6883 101.058 43.0803C100.373 45.579 98.0682 47.5487 95.4936 47.8374C92.9187 48.1261 90.2353 46.7159 89.013 44.4313C88.7779 43.9921 88.5904 43.51 88.6 43.012C88.6448 40.6836 91.4434 42.2793 92.6502 42.4401C94.7581 42.7209 96.9344 42.4985 98.9363 41.7773Z" fill="#FBF3E7"/>
<path d="M85.7031 51.6689C88.2951 53.7336 91.5913 54.8976 94.9049 54.9186C98.2188 54.9396 101.529 53.8178 104.147 51.7861" stroke="#CB7E55" stroke-width="0.387473" stroke-miterlimit="10" stroke-linecap="round" stroke-linejoin="round"/>
<path d="M41.7293 179.038C44.3475 149.607 46.9646 135.629 49.5832 104.6C42.4231 106.436 35.4667 108.799 29.1707 112.677C23.2019 116.354 16.5156 118.737 9.5806 119.762C7.82373 120.022 5.95606 120.171 4.34613 119.424C2.39745 118.521 1.22077 116.473 0.615159 114.413C-0.99438 108.938 0.689421 102.85 4.09594 98.2721C7.50246 93.6944 12.4502 90.4718 17.6474 88.1168C22.941 85.7178 28.5595 84.1309 34.0334 82.1803C39.173 80.3483 43.9055 77.5768 48.2195 74.2362C57.3569 67.1611 71.0365 67.9911 79.6998 60.3369C80.4797 67.1873 90.2088 68.6511 92.9287 74.9864C94.5883 78.852 93.4045 83.2795 92.2862 87.3353C84.0487 117.217 80.394 129.993 81.4892 160.97C81.7168 167.411 82.0563 174.26 78.8587 179.856C75.4676 185.791 68.5641 189.1 61.7482 189.611C56.3386 190.016 50.6765 187.483 45.3844 185.185C42.9699 184.137 41.4962 181.66 41.7293 179.038Z" fill="#6937A4"/>
<path d="M84.2531 56.5181C82.4192 56.1821 80.536 57.188 79.3685 58.6415C78.201 60.095 77.6291 61.9317 77.2006 63.7461C76.049 68.6232 75.7547 73.7016 76.3361 78.6791C79.5031 78.8169 82.6904 77.1947 84.4433 74.553C85.1788 73.4447 85.7042 72.1441 86.7566 71.3308C87.809 70.5175 89.6727 70.5441 90.1714 71.7771C91.0153 70.9273 91.0614 69.6398 90.4474 68.6117C89.8331 67.5835 88.8363 66.856 87.9372 66.0649C86.5902 64.8799 85.4036 63.4781 84.6622 61.8447C83.9199 60.2109 83.7877 58.2507 84.2531 56.5181Z" fill="#6937A4"/>
<path d="M90.2683 71.8703C89.9446 70.9962 88.8784 70.5601 87.9614 70.7281C87.0444 70.8961 86.2792 71.5395 85.7053 72.2741C85.1315 73.0088 84.707 73.8479 84.1748 74.6136C82.3806 77.1953 79.3109 78.8425 76.1673 78.9093C75.1721 73.28 75.8055 67.4435 77.6727 62.0407C78.1902 60.5435 78.8395 59.0424 79.959 57.9217C81.0785 56.8006 82.7619 56.1259 84.2805 56.5763" stroke="#3E2061" stroke-width="0.331915" stroke-miterlimit="10" stroke-linecap="round" stroke-linejoin="round"/>
<path d="M148.302 178.796C145.78 149.379 144.197 135.633 141.578 104.6C148.738 106.436 155.695 108.799 161.991 112.677C167.96 116.354 174.646 118.737 181.581 119.762C183.338 120.022 185.205 120.171 186.815 119.424C188.764 118.521 189.941 116.473 190.546 114.413C192.156 108.938 190.472 102.85 187.066 98.2721C183.659 93.6944 178.711 90.4718 173.514 88.1168C168.221 85.7178 162.602 84.1309 157.128 82.1803C151.989 80.3483 147.256 77.5768 142.942 74.2362C133.805 67.1611 120.125 67.9911 111.462 60.3369C110.682 67.1873 100.953 68.6511 98.2328 74.9864C96.5732 78.852 97.757 83.2795 98.8749 87.3353C107.112 117.217 109.629 129.739 108.534 160.715C108.307 167.156 107.967 174.005 111.165 179.601C114.556 185.536 121.459 188.845 128.275 189.356C133.687 189.761 139.352 187.225 144.646 184.927C147.055 183.88 148.527 181.413 148.302 178.796Z" fill="#6937A4"/>
<path d="M106.909 56.5181C108.742 56.1821 110.626 57.188 111.793 58.6415C112.961 60.095 113.533 61.9317 113.961 63.7461C115.113 68.6232 115.407 73.7016 114.826 78.6791C111.659 78.8169 108.471 77.1947 106.718 74.553C105.983 73.4447 105.457 72.1441 104.405 71.3308C103.352 70.5175 101.489 70.5441 100.99 71.7771C100.146 70.9273 100.1 69.6398 100.714 68.6117C101.329 67.5835 102.325 66.856 103.224 66.0649C104.571 64.8799 105.758 63.4781 106.499 61.8447C107.242 60.2109 107.374 58.2507 106.909 56.5181Z" fill="#6937A4"/>
<path d="M100.893 71.8703C101.216 70.9962 102.283 70.5601 103.199 70.7281C104.116 70.8961 104.882 71.5395 105.456 72.2741C106.029 73.0088 106.454 73.8479 106.986 74.6136C108.78 77.1953 111.85 78.8425 114.994 78.9093C115.989 73.28 115.355 67.4435 113.488 62.0407C112.971 60.5435 112.321 59.0424 111.202 57.9217C110.082 56.8006 108.399 56.1259 106.88 56.5763" stroke="#3E2061" stroke-width="0.331915" stroke-miterlimit="10" stroke-linecap="round" stroke-linejoin="round"/>
<path d="M24.0568 89.8284C19.4712 89.3252 14.7065 90.7223 11.1185 93.6217C7.53053 96.5211 5.16407 100.886 4.69348 105.475C4.4568 107.783 4.68951 110.161 5.56001 112.311C6.4305 114.462 7.9622 116.371 9.97641 117.522C8.96772 118.216 7.47215 118.615 6.38642 118.05C5.30029 117.486 4.48579 116.508 3.83252 115.472C1.68687 112.07 1.03995 107.758 2.09312 103.876" stroke="#3E2061" stroke-width="0.331915" stroke-miterlimit="10" stroke-linecap="round" stroke-linejoin="round"/>
<path d="M180.889 94.1201C185.861 97.3654 188.493 103.832 187.2 109.627C186.767 111.569 185.913 113.452 184.533 114.886C183.153 116.321 181.213 117.27 179.223 117.226" stroke="#3E2061" stroke-width="0.331915" stroke-miterlimit="10" stroke-linecap="round" stroke-linejoin="round"/>
<path d="M181.806 118.82C184.392 118.052 186.639 116.207 187.897 113.82C189.154 111.434 189.404 108.537 188.575 105.97" stroke="#3E2061" stroke-width="0.331915" stroke-miterlimit="10" stroke-linecap="round" stroke-linejoin="round"/>
<path d="M86.1608 99.0364C86.8865 99.0364 87.4748 98.448 87.4748 97.7223C87.4748 96.9965 86.8865 96.4082 86.1608 96.4082C85.435 96.4082 84.8467 96.9965 84.8467 97.7223C84.8467 98.448 85.435 99.0364 86.1608 99.0364Z" fill="#3E2061"/>
<path d="M82.1403 120.641C82.866 120.641 83.4543 120.053 83.4543 119.327C83.4543 118.601 82.866 118.013 82.1403 118.013C81.4145 118.013 80.8262 118.601 80.8262 119.327C80.8262 120.053 81.4145 120.641 82.1403 120.641Z" fill="#3E2061"/>
<path d="M80.468 145.847C80.468 146.573 79.8795 147.161 79.1539 147.161C78.428 147.161 77.8398 146.573 77.8398 145.847C77.8398 145.122 78.4284 144.533 79.1539 144.533C79.8795 144.533 80.468 145.121 80.468 145.847Z" fill="#3E2061"/>
<path d="M104.122 96.6931C104.867 96.539 105.612 96.3846 106.356 96.2305" stroke="#3E2061" stroke-width="0.331915" stroke-miterlimit="10" stroke-linecap="round" stroke-linejoin="round"/>
<path d="M108.593 117.558C109.398 117.427 110.204 117.296 111.009 117.165" stroke="#3E2061" stroke-width="0.331915" stroke-miterlimit="10" stroke-linecap="round" stroke-linejoin="round"/>
<path d="M112.031 143.4C112.9 143.278 113.769 143.156 114.638 143.034" stroke="#3E2061" stroke-width="0.331915" stroke-miterlimit="10" stroke-linecap="round" stroke-linejoin="round"/>
<path d="M102.299 12.1299C100.822 13.7386 98.4923 14.2656 96.3085 14.2859C94.1247 14.3061 91.9461 13.9062 89.7659 14.0341C85.7121 14.2716 81.8143 16.4414 79.4764 19.7614C77.1386 23.0817 76.4099 27.4827 77.5524 31.3792" stroke="#262626" stroke-width="0.369205" stroke-miterlimit="10"/>
<path d="M102.975 9.12939C99.9958 10.2965 96.6826 10.0408 93.4854 10.1758C89.4522 10.3466 85.3718 11.2024 81.9089 13.2773C78.4459 15.3523 75.6585 18.7557 74.9219 22.7245" stroke="#262626" stroke-width="0.369205" stroke-miterlimit="10"/>
<path d="M103.862 7.09835C102.064 4.40903 99.1648 2.4806 95.9899 1.86109C92.8149 1.24198 89.4036 1.93972 86.7266 3.75577" stroke="#262626" stroke-width="0.369205" stroke-miterlimit="10"/>
<path d="M101.866 7.67929C93.7604 5.2199 84.486 7.03634 77.9072 12.3717" stroke="#262626" stroke-width="0.369205" stroke-miterlimit="10"/>
<path d="M103.615 14.3755C103.367 15.3 103.792 16.2916 104.427 17.008C105.062 17.7244 105.889 18.2363 106.647 18.8213C110.245 21.6007 112.28 26.282 111.859 30.8092" stroke="#262626" stroke-width="0.369205" stroke-miterlimit="10"/>
<path d="M105.267 11.5073C107.37 14.0243 109.909 16.1803 111.773 18.8795C113.638 21.5788 114.772 25.0881 113.615 28.1579" stroke="#262626" stroke-width="0.369205" stroke-miterlimit="10"/>
<path d="M113.046 14.7276C112.367 12.5415 110.105 10.9582 107.818 11.069" stroke="#262626" stroke-width="0.369205" stroke-miterlimit="10"/>
<path d="M50.5598 102.335C49.3883 106.627 48.7413 111.061 48.6377 115.508" stroke="#3E2061" stroke-width="0.331915" stroke-miterlimit="10" stroke-linecap="round" stroke-linejoin="round"/>
<path d="M48.1621 132.323C48.7046 135.113 50.189 137.646 51.9939 139.841C53.7988 142.036 55.9294 143.937 57.9889 145.896C58.8598 146.724 59.7966 147.844 59.4237 148.987C59.1306 149.884 58.0786 150.36 57.1387 150.272C56.1987 150.184 55.3587 149.66 54.603 149.094C51.4781 146.754 49.1116 143.417 47.9365 139.693" stroke="#3E2061" stroke-width="0.331915" stroke-miterlimit="10" stroke-linecap="round" stroke-linejoin="round"/>
<path d="M47.4346 148.897C48.9698 151.51 51.7267 153.37 54.7246 153.815" stroke="#3E2061" stroke-width="0.331915" stroke-miterlimit="10" stroke-linecap="round" stroke-linejoin="round"/>
<path d="M140.795 130.086C137.55 133.811 133.049 136.423 128.205 137.389C127.523 137.525 126.823 137.634 126.21 137.96C125.597 138.286 125.076 138.885 125.061 139.58C125.032 140.926 126.786 141.586 128.109 141.335C129.432 141.084 130.68 140.331 132.023 140.432" stroke="#3E2061" stroke-width="0.331915" stroke-miterlimit="10" stroke-linecap="round" stroke-linejoin="round"/>
<path d="M140.057 125.012C137.179 127.587 133.608 129.379 129.823 130.147" stroke="#3E2061" stroke-width="0.331915" stroke-miterlimit="10" stroke-linecap="round" stroke-linejoin="round"/>
<path d="M138.842 106.73C138.03 107.218 137.217 107.706 136.404 108.193" stroke="#3E2061" stroke-width="0.331915" stroke-miterlimit="10" stroke-linecap="round" stroke-linejoin="round"/>
<path d="M79.352 127.525C74.025 127.47 68.7949 124.72 65.7295 120.363" stroke="#3E2061" stroke-width="0.331915" stroke-miterlimit="10" stroke-linecap="round" stroke-linejoin="round"/>
<path d="M17.1634 117.831C12.803 117.685 8.74636 114.704 7.01371 110.7C5.28106 106.696 5.80646 101.872 8.08912 98.1536C10.3718 94.4354 14.2838 91.8338 18.5303 90.8339C29.6354 88.2188 41.4367 89.7712 52.3818 86.5517C54.5287 85.9203 55.726 83.8556 56.6278 81.8077C57.5297 79.7601 58.0591 77.5227 59.3251 75.6777C60.6054 73.8112 62.0692 72.0921 62.5879 69.8888C62.8575 68.7427 62.8682 67.5537 62.8778 66.3767C62.8833 65.6738 62.8889 64.9709 62.8948 64.2679C63.3003 63.7866 63.8809 63.4824 64.5012 63.5885C65.1215 63.6941 65.6751 64.0591 66.1095 64.5142C67.2274 65.6857 67.5948 67.406 67.5265 69.0239C67.4582 70.6418 67.0074 72.2156 66.7033 73.8064C66.3991 75.3969 66.2466 77.0744 66.7596 78.6104C66.907 79.052 67.2195 79.0719 67.652 79.2435C68.0844 79.415 68.5566 79.4531 69.0209 79.4893C69.9771 79.5639 70.933 79.6386 71.8889 79.7136C73.06 79.805 74.2518 79.9015 75.3419 80.3391C76.432 80.7767 77.424 81.6167 77.7464 82.7461C78.0689 83.8755 77.5304 85.2702 76.4193 85.651C77.3017 86.0021 77.8533 87.0751 77.7627 88.0203C77.6722 88.9654 76.9061 89.8057 75.9733 89.9828C77.1297 90.5583 77.8557 91.8855 77.7087 93.1686C77.5618 94.4517 76.3887 94.869 75.1322 95.1685C75.7604 95.2415 76.532 96.8654 76.4685 97.4944C76.4046 98.1235 75.9554 98.6596 75.4213 98.9983C74.8876 99.3371 74.27 99.5138 73.668 99.7084C71.8893 100.284 70.1725 101.052 68.5582 101.995C64.2327 104.523 58.7266 99.9594 53.767 100.665C46.0902 101.758 39.3788 106.004 32.5562 109.689C27.3559 112.499 23.0714 118.029 17.1634 117.831Z" fill="#E09B7A"/>
<path d="M62.9287 67.7127C63.2659 67.9835 63.8075 67.7984 64.0494 67.4398C64.2912 67.0812 64.3079 66.6202 64.2865 66.1881C64.2476 65.3911 64.1066 64.5949 63.8123 63.853" stroke="#CB7E55" stroke-width="0.387473" stroke-miterlimit="10" stroke-linecap="round" stroke-linejoin="round"/>
<path d="M70.29 90.0247C71.8297 90.0303 73.3689 90.0358 74.9086 90.0414C75.4701 90.0434 76.0459 90.043 76.5729 89.8488C77.0999 89.6546 77.5764 89.2221 77.6586 88.6665C77.7484 88.0601 77.8306 87.4545 77.6666 86.864C77.5026 86.2735 77.0534 85.7286 76.4526 85.6079" stroke="#CB7E55" stroke-width="0.387473" stroke-miterlimit="10" stroke-linecap="round" stroke-linejoin="round"/>
<path d="M71.7676 94.9429C72.5805 95.0954 73.3998 95.2491 74.227 95.2376C75.0542 95.2261 75.8992 95.0383 76.5759 94.5625C77.2526 94.0868 77.7347 93.2929 77.7018 92.4665C77.6621 91.4673 76.9218 90.6429 76.1546 90.002" stroke="#CB7E55" stroke-width="0.387473" stroke-miterlimit="10" stroke-linecap="round" stroke-linejoin="round"/>
<path d="M64.5342 78.5205C67.9336 79.2905 71.3853 79.8274 74.8578 80.1265C74.8578 80.1265 76.7239 80.3663 77.5356 82.2165C77.7469 82.7463 77.6499 84.9118 77.096 85.2871C76.6413 85.5949 76.0634 85.6493 75.5142 85.6501C73.894 85.6528 72.2745 85.2748 70.6638 85.4511" stroke="#CB7E55" stroke-width="0.387473" stroke-miterlimit="10" stroke-linecap="round" stroke-linejoin="round"/>
<path d="M175.315 117.831C179.675 117.685 183.732 114.704 185.464 110.7C187.197 106.696 186.672 101.872 184.389 98.1536C182.106 94.4354 178.194 91.8338 173.948 90.8339C162.843 88.2188 151.041 89.7712 140.096 86.5517C137.949 85.9203 136.752 83.8556 135.85 81.8077C134.948 79.7601 134.419 77.5227 133.153 75.6777C131.872 73.8112 130.408 72.0921 129.89 69.8888C129.62 68.7427 129.609 67.5537 129.6 66.3767C129.594 65.6738 129.588 64.9709 129.583 64.2679C129.177 63.7866 128.597 63.4824 127.976 63.5885C127.356 63.6941 126.803 64.0591 126.368 64.5142C125.25 65.6857 124.883 67.406 124.951 69.0239C125.02 70.6418 125.47 72.2156 125.774 73.8064C126.079 75.3969 126.231 77.0744 125.718 78.6104C125.571 79.052 125.258 79.0719 124.826 79.2435C124.393 79.415 123.921 79.4531 123.457 79.4893C122.501 79.5639 121.545 79.6386 120.589 79.7136C119.418 79.805 118.226 79.9015 117.136 80.3391C116.046 80.7767 115.054 81.6167 114.731 82.7461C114.409 83.8755 114.947 85.2702 116.058 85.651C115.176 86.0021 114.624 87.0751 114.715 88.0203C114.806 88.9654 115.572 89.8057 116.504 89.9828C115.348 90.5583 114.622 91.8855 114.769 93.1686C114.916 94.4517 116.089 94.869 117.346 95.1685C116.717 95.2415 115.946 96.8654 116.009 97.4944C116.073 98.1235 116.522 98.6596 117.056 98.9983C117.59 99.3371 118.208 99.5138 118.809 99.7084C120.588 100.284 122.305 101.052 123.919 101.995C128.245 104.523 133.751 99.9594 138.71 100.665C146.387 101.758 153.098 106.004 159.921 109.689C165.122 112.499 169.406 118.029 175.315 117.831Z" fill="#E09B7A"/>
<path d="M129.548 67.7127C129.211 67.9835 128.67 67.7984 128.428 67.4398C128.186 67.0812 128.169 66.6202 128.19 66.1881C128.229 65.3911 128.37 64.5949 128.664 63.853" stroke="#CB7E55" stroke-width="0.387473" stroke-miterlimit="10" stroke-linecap="round" stroke-linejoin="round"/>
<path d="M122.187 90.0247C120.648 90.0303 119.108 90.0358 117.569 90.0414C117.007 90.0434 116.431 90.043 115.905 89.8488C115.378 89.6546 114.901 89.2221 114.819 88.6665C114.729 88.0601 114.647 87.4545 114.811 86.864C114.975 86.2735 115.424 85.7286 116.025 85.6079" stroke="#CB7E55" stroke-width="0.387473" stroke-miterlimit="10" stroke-linecap="round" stroke-linejoin="round"/>
<path d="M120.71 94.9429C119.897 95.0954 119.077 95.2491 118.25 95.2376C117.423 95.2261 116.578 95.0383 115.901 94.5625C115.225 94.0868 114.742 93.2929 114.775 92.4665C114.815 91.4673 115.555 90.6429 116.322 90.002" stroke="#CB7E55" stroke-width="0.387473" stroke-miterlimit="10" stroke-linecap="round" stroke-linejoin="round"/>
<path d="M127.943 78.5205C124.543 79.2905 121.091 79.8274 117.619 80.1265C117.619 80.1265 115.753 80.3663 114.941 82.2165C114.73 82.7463 114.827 84.9118 115.381 85.2871C115.835 85.5949 116.413 85.6493 116.963 85.6501C118.583 85.6528 120.202 85.2748 121.813 85.4511" stroke="#CB7E55" stroke-width="0.387473" stroke-miterlimit="10" stroke-linecap="round" stroke-linejoin="round"/>
<path d="M75.2751 95.1709C75.9573 95.9135 76.6912 96.8801 76.3544 97.8308C76.1023 98.5421 75.3457 98.9201 74.6567 99.2275C73.2585 99.8518 71.8598 100.476 70.4615 101.1C68.8496 101.82 67.1916 102.55 65.4288 102.645C61.5425 102.854 57.8704 99.9511 54.0361 100.619" stroke="#CB7E55" stroke-width="0.387473" stroke-miterlimit="10" stroke-linecap="round" stroke-linejoin="round"/>
</svg>
