<svg width="147" height="165" viewBox="0 0 147 165" fill="none" xmlns="http://www.w3.org/2000/svg">
<path d="M79.5114 21.1798C79.343 28.5472 79.1738 35.9647 78.3302 43.2646C78.1277 45.0876 77.8664 46.9018 77.5621 48.7074C77.2245 50.7408 76.8115 52.7664 76.3214 54.7752C75.8654 56.6491 75.334 58.5221 74.3975 60.2101C73.4689 61.8893 72.0939 63.3914 70.3297 64.1682C67.7728 65.2906 64.7853 64.7671 62.1775 63.7798C54.4478 60.8598 48.3633 53.9396 46.464 45.9057C45.0374 39.8807 45.958 33.484 46.9366 27.374C51.2236 23.5175 56.5997 20.1336 62.2871 19.163C67.9753 18.1923 74.187 18.9684 79.5114 21.1798Z" fill="#E09B7A"/>
<path d="M48.1188 49.7994C46.1934 50.5611 43.8922 49.8177 42.441 48.341C40.9897 46.8643 40.2899 44.7855 40.0683 42.7266C39.8943 41.1125 40.0008 39.423 40.7141 37.9646C41.4274 36.5062 42.831 35.3211 44.4482 35.1821C46.0655 35.0431 47.7876 36.1607 48.0442 37.7637C48.6622 41.6098 48.9735 46.0001 48.1188 49.7994Z" fill="#E09B7A"/>
<path d="M64.3387 71.3658C63.5118 78.151 61.3854 83.8384 57.7903 89.197C48.9374 85.2809 41.5454 77.973 37.9844 68.986C41.0982 63.0364 43.385 56.3275 44.3136 49.6353C45.4193 50.1166 46.6593 50.2596 47.7991 49.9053C47.9509 50.2596 48.1113 50.6059 48.2885 50.9514C51.0901 56.7572 56.1285 61.4914 62.1789 63.7783C62.5928 63.9388 63.0225 64.0826 63.453 64.2089C63.3855 65.8293 63.4951 67.4497 63.7906 69.036C63.9249 69.8216 64.1108 70.5985 64.3387 71.3658Z" fill="#E09B7A"/>
<path d="M69.453 35.9434C69.4332 38.5138 69.4125 41.0843 69.3927 43.6547C70.1306 43.1487 71.2594 43.4696 71.7137 44.2409C72.1689 45.0114 71.9687 46.0703 71.3436 46.7105C70.7184 47.3508 69.7461 47.5851 68.8652 47.427" stroke="#25262B" stroke-width="0.843898" stroke-miterlimit="10" stroke-linecap="round" stroke-linejoin="round"/>
<path d="M72.2207 38.637C73.5536 37.6981 75.3972 37.5408 76.8707 38.2398" stroke="#25262B" stroke-width="0.843898" stroke-miterlimit="10" stroke-linecap="round" stroke-linejoin="round"/>
<path d="M66.1179 39.0432C64.4625 37.7469 62.0215 37.5539 60.1826 38.5722" stroke="#25262B" stroke-width="0.843898" stroke-miterlimit="10" stroke-linecap="round" stroke-linejoin="round"/>
<path d="M78.0464 33.0947C78.1385 31.9835 77.4308 30.8793 76.4236 30.4012C75.4164 29.9238 74.1756 30.0453 73.2177 30.6156C72.2597 31.1868 71.5805 32.167 71.2676 33.2377" stroke="#25262B" stroke-width="0.843898" stroke-miterlimit="10" stroke-linecap="round" stroke-linejoin="round"/>
<path d="M67.0573 33.3933C66.603 31.243 64.4146 29.6043 62.223 29.7743C60.0315 29.9435 58.1211 31.8984 58.002 34.0931" stroke="#25262B" stroke-width="0.843898" stroke-miterlimit="10" stroke-linecap="round" stroke-linejoin="round"/>
<path d="M70.6314 54.116C70.5631 53.3305 69.9014 52.8014 69.1563 52.687C68.2707 52.5512 67.4843 52.9984 66.7733 53.4742C66.3317 53.031 65.89 52.587 65.4468 52.1453C64.9098 51.6099 64.2736 51.0785 63.461 51.2096C62.7175 51.3295 62.3052 52.0087 62.395 52.7323C62.4855 53.4591 63.0026 54.1478 63.4308 54.7197C63.87 55.3068 64.3848 55.8556 65.0369 56.2075C65.7709 56.6039 66.6089 56.6937 67.4279 56.5991C68.7663 56.445 70.7815 55.8374 70.6314 54.116Z" fill="white"/>
<path d="M55.1768 46.0138C55.1768 47.5333 57.1848 48.7645 59.6616 48.7645C62.1383 48.7645 64.1464 47.5325 64.1464 46.0138C64.1464 44.4942 62.1383 43.2622 59.6616 43.2622C57.1848 43.2622 55.1768 44.4942 55.1768 46.0138Z" fill="#CB7E55"/>
<path d="M78.3291 43.2646C78.1266 45.0876 77.8652 46.9019 77.561 48.7074C75.4934 48.4628 73.9404 47.3491 73.9404 46.0154C73.9412 44.5221 75.8905 43.298 78.3291 43.2646Z" fill="#CB7E55"/>
<path d="M48.5223 45.9434C47.7152 43.2863 45.8327 41.0066 43.3631 39.7317C42.8809 39.4831 42.4536 40.2107 42.9373 40.4601C44.7254 41.3831 46.1774 42.8638 47.0837 44.6431C46.3482 44.3182 45.4935 44.2165 44.6817 44.226C44.1392 44.2324 44.1376 45.076 44.6817 45.0696C45.7985 45.0569 47.1243 45.2078 47.7518 46.2675C47.9901 46.6734 48.6637 46.4096 48.5223 45.9434Z" fill="#CB7E55"/>
<path d="M63.4517 64.21C63.0212 64.0837 62.5906 63.94 62.1776 63.7795C56.1272 61.4926 51.0887 56.7584 48.2871 50.9526C48.388 54.1427 49.5279 57.3661 51.1229 60.0501C52.988 63.1639 55.7141 65.7383 58.9542 67.3754C60.4817 68.1436 62.1101 68.7091 63.7901 69.038C63.4938 67.4509 63.3842 65.8305 63.4517 64.21Z" fill="#CB7E55"/>
<path d="M88.9117 9.67709C88.5574 11.7527 87.3508 13.6178 85.7891 15.0277C84.2283 16.4368 82.3036 17.5426 80.3376 18.3107C81.3083 18.5387 82.2194 19.0367 82.8525 19.804C83.4856 20.5634 83.8065 21.6104 83.6119 22.5802C83.3839 23.6605 82.557 24.5462 81.5784 25.0442C80.5998 25.551 79.4774 25.7194 78.3804 25.7782C75.3087 25.9299 72.0845 25.3731 69.3592 23.9473C70.2115 24.4112 70.4474 25.6098 70.0344 26.4788C69.6126 27.3399 68.684 27.88 67.7387 28.0571C66.7935 28.2343 65.8228 28.108 64.8696 27.9555C61.249 27.382 57.6293 26.4192 54.6251 24.3095C54.9206 26.9594 54.3892 29.7022 53.123 32.0479C51.9331 34.2593 50.1101 36.1069 47.9329 37.331C47.469 35.9639 45.916 35.0528 44.4473 35.1791C44.0001 35.2212 43.5609 35.3475 43.1478 35.5334C41.3756 31.8374 40.3375 27.795 40.1182 23.7018C40.0173 21.7613 40.1015 19.7611 40.7934 17.9294C41.4853 16.1064 42.861 14.4693 44.7007 13.8283C46.5491 13.1873 48.8694 13.845 49.933 15.4821C49.1395 13.2373 50.0847 10.6128 51.8656 9.03448C53.6544 7.45614 56.1272 6.83178 58.507 6.88262C60.8868 6.9414 63.2079 7.61659 65.4606 8.39345C66.4058 8.71436 67.537 9.102 67.8912 10.0306C68.4314 6.57046 70.4061 3.355 73.2498 1.30483C74.0346 0.739267 74.8957 0.249962 75.8489 0.0728262C76.8029 -0.113047 77.849 0.0473981 78.5917 0.6638C79.6299 1.51612 79.8658 3.00152 79.7983 4.34315C79.672 6.85801 78.7522 9.36412 77.123 11.2801C78.8364 9.11947 81.047 7.35605 83.5364 6.17488C84.878 5.53385 86.5747 5.09459 87.7893 5.95564C88.9037 6.74918 89.1396 8.32672 88.9117 9.67709Z" fill="#2F3233"/>
<path d="M51.3552 23.6883C51.1272 25.516 50.6657 27.3128 49.9937 29.0277C49.6585 29.8825 49.2645 30.7149 48.8221 31.5196C48.3836 32.3179 47.9237 33.2028 47.1715 33.7485C46.7362 34.0646 47.1572 34.797 47.5972 34.4769C48.3598 33.9232 48.8578 33.1535 49.3233 32.3473C49.8349 31.4616 50.2797 30.5402 50.6689 29.5941C51.4474 27.7012 51.9454 25.717 52.1988 23.6875C52.2663 23.1505 51.4219 23.1553 51.3552 23.6883Z" fill="#1F1F1F"/>
<path d="M44.6857 18.3092C43.1908 22.5621 43.024 27.2089 44.1916 31.5619C44.3322 32.0861 45.1464 31.8637 45.005 31.3379C43.8739 27.1216 44.0518 22.6511 45.4991 18.534C45.6794 18.0201 44.8644 17.7993 44.6857 18.3092Z" fill="#1F1F1F"/>
<path d="M66.591 19.9558C66.2209 19.5571 65.6251 20.1544 65.9945 20.5524C66.4306 21.0226 66.9429 21.5509 67.0136 22.2221C67.074 22.7972 66.7594 23.358 66.3615 23.748C65.3725 24.7155 63.826 24.8203 62.5328 24.59C60.0767 24.1531 57.3498 22.9322 56.252 20.554C56.0248 20.0615 55.2972 20.4896 55.5236 20.9797C56.1885 22.4207 57.4197 23.4938 58.8161 24.2071C60.2507 24.9395 61.9259 25.5051 63.5471 25.5352C65.0198 25.5622 66.5974 25.0499 67.4298 23.7631C68.3394 22.3563 67.5967 21.0393 66.591 19.9558Z" fill="#1F1F1F"/>
<path d="M80.7758 21.1201C80.323 19.8492 78.8868 19.2399 77.7144 18.8348C77.1997 18.6569 76.9789 19.4719 77.4896 19.6482C78.3848 19.9572 79.7376 20.4545 80.01 21.4903C80.323 22.681 78.4214 23.0114 77.6318 23.1123C75.422 23.3927 73.1986 22.7128 71.2684 21.6754C70.7902 21.418 70.3637 22.1464 70.8426 22.4038C73.2884 23.7184 76.2258 24.4976 78.9655 23.693C80.1022 23.3593 81.2452 22.4379 80.7758 21.1201Z" fill="#1F1F1F"/>
<path d="M81.4912 12.7303C80.6214 11.859 78.893 12.3284 77.8905 12.6636C76.9746 12.9694 76.1152 13.4039 75.2819 13.8861C75.4837 13.4206 75.6775 12.9512 75.861 12.4785C76.2018 11.6024 76.6236 10.6611 76.614 9.70235C76.6069 9.01129 76.3432 8.3059 75.7919 7.86823C75.1509 7.35906 74.3311 7.43613 73.6194 7.74433C72.1435 8.38297 71.0728 9.72221 70.2999 11.0885C69.3856 12.7049 68.7327 14.4818 68.295 16.2826C68.1663 16.81 68.9805 17.0348 69.1084 16.5074C69.4738 15.0077 69.9877 13.5469 70.6812 12.1664C71.2626 11.0098 71.9855 9.86758 73.0276 9.07245C73.5344 8.68561 74.3486 8.13989 75.0142 8.38296C75.7188 8.64032 75.8388 9.53713 75.7307 10.175C75.5989 10.9526 75.2621 11.712 74.9737 12.442C74.6679 13.2181 74.3327 13.9814 73.9768 14.736C73.8092 15.0903 74.1691 15.5574 74.5543 15.3135C75.4058 14.7734 76.2725 14.2475 77.1955 13.8368C78.1542 13.4103 79.3426 12.9734 80.4086 13.1418C81.8781 13.3745 80.0662 14.9791 79.557 15.3508C78.7635 15.9307 77.8635 16.3136 76.9024 16.5122C76.371 16.6218 76.5958 17.436 77.1272 17.3263C78.36 17.0714 79.5038 16.5153 80.4657 15.7019C81.2259 15.0577 82.4786 13.7193 81.4912 12.7303Z" fill="#1F1F1F"/>
<path d="M64.6143 12.1525C62.4068 11.1326 59.9738 10.5956 57.5447 10.9499C55.4008 11.2621 53.3586 12.3002 51.9526 13.9636C51.6039 14.3758 52.1981 14.9755 52.5492 14.5601C55.4548 11.1238 60.3638 11.1135 64.1877 12.8809C64.6786 13.1081 65.1076 12.3805 64.6143 12.1525Z" fill="#1F1F1F"/>
<path d="M89.3004 169.021C76.549 173.25 63.0636 175.174 49.6712 174.726C49.3423 174.718 49.0214 174.71 48.7005 174.693C38.7849 174.279 28.928 172.558 19.4683 169.512C19.4095 166.178 19.0211 162.845 18.3626 159.554C18.1767 158.6 17.9741 157.663 17.7295 156.727V156.701C20.126 152.203 22.0078 147.443 23.3414 142.532C23.8482 140.692 24.278 138.827 24.6243 136.946C26.008 136.962 27.4005 136.954 28.7929 136.912C29.1393 135.486 29.4594 134.051 29.7469 132.608C29.8311 132.237 29.8987 131.857 29.9662 131.486C30.2362 130.119 30.4722 128.752 30.6747 127.376C30.801 126.575 30.9114 125.765 31.0123 124.954C31.114 124.195 31.1982 123.436 31.2824 122.676C31.3753 121.79 31.4595 120.913 31.527 120.026C31.5858 119.241 31.6454 118.448 31.6875 117.655C31.7129 117.343 31.7296 117.031 31.7463 116.719C31.8225 115.149 31.8559 113.579 31.8559 112.01C31.8559 111.335 31.8472 110.659 31.8305 109.984C31.8305 109.858 31.8305 109.731 31.8217 109.613C31.8051 108.913 31.7796 108.221 31.7455 107.52C31.7288 107.132 31.7113 106.744 31.6867 106.364C31.6613 105.942 31.6359 105.52 31.6025 105.106C31.5683 104.583 31.5262 104.068 31.4762 103.545C31.4428 103.208 31.4174 102.879 31.3753 102.541C31.3499 102.288 31.3245 102.043 31.2991 101.79C31.257 101.385 31.2061 100.972 31.1553 100.567C31.0711 99.8327 30.9694 99.098 30.8519 98.3728C30.7677 97.7738 30.6747 97.1828 30.5651 96.5839C30.4134 95.6641 30.2363 94.7443 30.0416 93.8332C29.9066 93.1747 29.7628 92.5169 29.6032 91.8584C29.5944 91.8076 29.5865 91.7568 29.569 91.7067C29.4173 91.0482 29.2481 90.3985 29.0797 89.7487C29.4761 89.6049 29.8732 89.4619 30.2696 89.3182C30.5397 89.2165 30.8185 89.1156 31.0878 89.0227C32.0163 88.6764 32.9441 88.3134 33.8727 87.9511C34.5558 87.6811 35.2485 87.4023 35.9316 87.1155C36.05 87.0647 36.1596 87.0226 36.2779 86.9717H36.2867C36.6497 86.82 37.0127 86.6675 37.3749 86.5078C37.4845 86.457 37.6029 86.4149 37.7125 86.364C37.9826 86.2544 38.2526 86.1361 38.5227 86.0185C38.9278 85.8414 39.3242 85.6642 39.7214 85.4871C40.1432 85.3012 40.557 85.1162 40.9701 84.9216C41.476 84.6936 41.9828 84.4656 42.4809 84.2209C42.7255 84.1113 42.9702 83.993 43.2069 83.8746C43.8225 83.5879 44.4302 83.2924 45.0378 82.9802C45.6797 82.668 46.3207 82.3471 46.9538 82.0183C50.1271 84.997 53.8065 87.4443 57.7892 89.1998C61.3844 83.8413 63.5108 78.153 64.3377 71.3687C69.2745 73.0646 74.1271 75.4277 78.372 78.5335C78.6087 78.7107 78.8446 78.8799 79.0726 79.0649C79.2751 79.2167 79.4777 79.3771 79.6802 79.5288C81.419 80.9046 82.6256 82.8372 83.0728 85.0057C83.8576 88.8114 84.5749 92.6258 85.2247 96.4576C85.2835 96.7531 85.3343 97.0566 85.3764 97.3521C87.0723 107.352 88.3043 117.42 89.047 127.522C89.1145 128.391 89.1733 129.252 89.2329 130.121V130.129C89.2662 130.484 89.2837 130.83 89.3004 131.184C89.5196 134.517 89.6714 137.842 89.7643 141.176C89.781 141.472 89.7897 141.758 89.7897 142.045C90.0431 151.038 89.8827 160.042 89.3004 169.021Z" fill="#6937A4"/>
<path d="M102.121 108.634C102.307 105.619 103.139 102.645 104.545 99.9712C107.076 98.3921 110.084 97.4325 113.067 97.3833C111.709 102.652 107.372 107.209 102.121 108.634Z" fill="#E09B7A"/>
<path d="M106.219 108.48H118.936C120.443 108.48 122.585 107.369 123.72 105.999L146.316 78.7022C147.451 77.332 147.149 76.2207 145.641 76.2207H132.925C131.417 76.2207 129.275 77.332 128.14 78.7022L105.544 105.999C104.41 107.37 104.712 108.48 106.219 108.48Z" fill="#E5415D"/>
<path d="M132.448 80.1198C131.757 80.9547 130.452 81.6322 129.533 81.6322C128.615 81.6322 128.43 80.9555 129.121 80.1198C129.813 79.285 131.118 78.6074 132.037 78.6074C132.955 78.6082 133.139 79.285 132.448 80.1198Z" fill="#DBD9DB"/>
<path d="M136.054 80.1201C135.57 80.7039 134.658 81.1781 134.015 81.1781C133.372 81.1781 133.244 80.7047 133.728 80.1201C134.211 79.5362 135.124 79.062 135.767 79.062C136.409 79.062 136.538 79.5362 136.054 80.1201Z" fill="#DBD9DB"/>
<path d="M132.592 99.1973C132.482 99.7708 132.153 100.278 131.807 100.75C129.967 103.307 127.688 105.501 125.419 107.678C123.183 109.839 121.073 112.193 118.431 113.838C114.761 116.125 110.355 116.792 106.034 117.036C102.346 126.412 96.726 134.961 89.797 142.269C89.5945 134.387 89.0798 126.506 88.2695 118.657C92.3373 115.113 96.7085 111.999 101.198 108.969C105.089 106.345 110.548 106.007 114.7 108.201C114.683 105.365 114.667 102.488 115.35 99.7287C115.494 99.1377 115.679 98.5388 116.067 98.0749C116.456 97.611 117.097 97.3068 117.679 97.476C118.168 97.6198 118.531 98.067 118.7 98.5563C118.869 99.0456 118.877 99.5691 118.885 100.084C118.911 102.101 119.071 104.16 119.097 106.168C119.241 103.333 119.713 100.514 120.489 97.7882C120.633 97.2735 120.793 96.7587 121.114 96.3369C121.434 95.9064 121.949 95.5942 122.472 95.6451C123.054 95.7039 123.518 96.2019 123.721 96.7508C123.923 97.2997 123.914 97.8986 123.898 98.4808C123.864 100.236 123.771 102.194 123.737 103.949C125.594 102.151 127.45 100.346 129.307 98.5396C129.687 98.1766 130.075 97.8057 130.556 97.5856C131.028 97.3664 131.627 97.3322 132.058 97.6277C132.541 97.9574 132.701 98.6238 132.592 99.1973Z" fill="#E09B7A"/>
<path d="M119.307 102.179C119.281 101.638 118.437 101.635 118.464 102.179C118.552 104.007 118.56 105.838 118.487 107.667C118.465 108.21 119.309 108.209 119.33 107.667C119.403 105.838 119.395 104.007 119.307 102.179Z" fill="#CB7E55"/>
<path d="M123.758 101.671C123.518 101.671 123.35 101.865 123.336 102.093C123.259 103.34 123.221 104.588 123.222 105.838C123.222 106.381 124.066 106.382 124.065 105.838C124.064 104.588 124.102 103.34 124.179 102.093C124.194 101.865 123.976 101.671 123.758 101.671Z" fill="#CB7E55"/>
<path d="M115.066 108.267C113.238 106.903 110.95 106.207 108.673 106.306C108.132 106.329 108.128 107.173 108.673 107.149C110.819 107.056 112.919 107.712 114.64 108.995C115.076 109.32 115.497 108.588 115.066 108.267Z" fill="#CB7E55"/>
<path d="M17.7294 156.701C19.299 163.047 19.9067 169.571 19.1807 176.068C13.9484 177.503 8.176 177.309 3.13835 175.291C1.71173 161.738 2.04137 148.084 4.32826 134.666C11.0118 136.067 17.797 136.852 24.6242 136.936C23.3501 143.823 21.0211 150.515 17.7294 156.701Z" fill="#E09B7A"/>
<path d="M18.0753 156.518C15.6708 155.154 12.8724 155.629 10.3059 156.178C9.77528 156.291 10.0001 157.105 10.5299 156.992C12.8621 156.492 15.4563 156.003 17.6487 157.247C18.1221 157.514 18.5479 156.786 18.0753 156.518Z" fill="#CB7E55"/>
<path d="M46.9538 82.0161C46.169 82.4212 45.3929 82.8175 44.5994 83.1972C44.1355 83.4339 43.6708 83.6532 43.2069 83.8724C42.9622 83.9908 42.7255 84.1083 42.4809 84.2187C41.9828 84.4634 41.4768 84.6914 40.9701 84.9193C40.5483 85.1132 40.1344 85.299 39.7214 85.4849C39.325 85.6708 38.9278 85.8392 38.5227 86.0163C38.143 86.1847 37.7633 86.3539 37.3749 86.5056C37.2732 86.5565 37.1724 86.5986 37.0715 86.6407C36.6918 86.8011 36.3121 86.9616 35.9324 87.1133C34.3207 87.7797 32.709 88.4128 31.0886 89.0205C30.8185 89.1134 30.5405 89.2143 30.2704 89.316C29.874 89.4597 29.4769 89.6027 29.0805 89.7465C29.4348 91.0969 29.7557 92.4639 30.0424 93.8309C30.2283 94.742 30.4054 95.6619 30.5659 96.5817C30.6422 97.0289 30.7176 97.4682 30.7851 97.9154C30.8106 98.0592 30.836 98.2188 30.8527 98.3714C30.9623 99.0974 31.0639 99.8401 31.1561 100.565C31.1728 100.666 31.1903 100.777 31.1982 100.877C31.249 101.299 31.2999 101.73 31.342 102.152C31.4436 103.088 31.5278 104.017 31.5954 104.953C31.6287 105.426 31.6629 105.898 31.6883 106.362C31.8996 109.806 31.9075 113.265 31.7471 116.717C31.7304 117.029 31.7129 117.342 31.6883 117.654C31.612 119.021 31.5112 120.388 31.3674 121.755C31.342 122.058 31.3165 122.371 31.2832 122.675C31.199 123.434 31.1148 124.194 31.0131 124.953C30.9122 125.763 30.8018 126.573 30.6755 127.375C30.473 128.751 30.237 130.118 29.967 131.485C29.8995 131.864 29.8232 132.235 29.7477 132.607C29.461 134.05 29.1401 135.485 28.7937 136.911C27.781 136.944 26.7682 136.953 25.7642 136.953C17.0718 136.944 8.44772 135.796 0 133.67C0.118355 132.387 0.244655 131.113 0.396372 129.839C0.429734 129.552 0.46389 129.257 0.497251 128.97C2.02475 116.337 5.15521 103.89 9.80523 92.0493C10.8601 89.374 12.0079 86.6907 13.4758 84.2267C13.6196 83.982 13.7713 83.7374 13.9231 83.5007C14.6316 82.395 15.4085 81.3321 16.2775 80.3448C19.4842 76.6988 23.6616 74.2348 28.1766 72.353C28.48 72.218 28.7922 72.0917 29.1051 71.9733C31.9997 70.8088 35.0126 69.8636 37.9826 68.9858C39.9414 73.9314 43.0631 78.3788 46.9538 82.0161Z" fill="#6937A4"/>
<path d="M89.7898 142.042C88.1947 142.557 86.7181 143.443 85.5282 144.624C84.4987 145.645 83.7139 146.869 83.2246 148.236C82.6424 149.89 82.381 151.671 81.5112 153.207C80.8273 154.422 79.7303 155.545 78.3379 155.866C76.6166 156.262 75.0128 155.275 73.4519 154.701C70.0514 153.453 66.38 152.878 62.7682 153.267C56.6502 153.917 50.5823 157.798 48.5568 163.815C47.6115 166.642 47.6282 169.774 48.633 172.583C48.9031 173.343 49.2574 174.06 49.6712 174.726C49.3424 174.718 49.0215 174.71 48.7005 174.693C46.6329 170.946 46.4812 166.195 48.3042 162.186C51.0295 156.211 57.4017 152.701 63.7984 152.338C67.5199 152.119 71.2834 152.878 74.7268 154.296C75.6125 154.667 76.5332 155.123 77.5118 155.114C78.3387 155.114 79.098 154.735 79.6978 154.178C81.0394 152.937 81.4866 151.157 81.968 149.46C82.4064 147.899 82.9641 146.431 83.9594 145.14C84.8204 144.009 85.9087 143.056 87.1327 142.322C87.9596 141.832 88.8461 141.444 89.7659 141.174C89.7818 141.469 89.7898 141.755 89.7898 142.042Z" fill="#A164D1"/>
<path d="M89.3003 131.181C86.4224 133.679 83.1903 135.848 79.4855 136.81C77.2661 137.392 74.8188 137.485 72.717 136.455C71.0457 135.628 69.6286 134.067 69.3165 132.185C68.6667 128.278 73.1475 123.974 69.5953 120.598C67.874 118.961 65.4346 118.623 63.1564 118.523C60.9371 118.43 58.7256 118.43 56.5571 117.881C54.6753 117.409 52.8357 116.557 51.4766 115.139C50.0841 113.687 49.3668 111.755 49.2485 109.755C49.0205 105.847 50.9785 102.084 53.9827 99.6619C56.8439 97.3496 60.5987 96.1009 64.278 96.4043C66.3115 96.5727 68.1432 97.2733 69.9662 98.1431C72.1014 99.1559 74.2532 100.236 76.6752 100.109C79.8906 99.9399 82.5739 98.2106 85.2238 96.4552C85.2825 96.7507 85.3334 97.0541 85.3755 97.3496C81.882 99.5944 78.0081 101.805 73.7298 100.616C71.5779 100.017 69.6787 98.8016 67.6031 98.0168C65.8985 97.3758 64.1009 97.1137 62.2866 97.232C58.7336 97.4767 55.2822 99.1646 52.9278 101.84C50.4384 104.667 49.1388 109.072 50.7847 112.642C52.5314 116.431 56.9876 117.444 60.7766 117.604C63.0802 117.706 65.5108 117.596 67.6968 118.457C69.3594 119.106 70.8956 120.296 71.5533 122.01C73.03 125.875 68.5579 129.664 70.6247 133.402C72.9958 137.698 78.8024 136.55 82.4309 134.829C84.937 133.63 87.1651 131.967 89.2328 130.128C89.2669 130.48 89.2836 130.827 89.3003 131.181Z" fill="#A164D1"/>
<path d="M60.4899 139.291C59.6797 141.249 58.3889 142.971 56.6588 144.211C54.7683 145.562 52.4981 146.245 50.3129 146.962C48.0093 147.722 45.7812 148.591 43.8907 150.169C42.0765 151.688 40.7769 153.595 39.7896 155.73C38.8785 157.714 38.1612 159.815 36.9205 161.62C35.6972 163.383 34.0172 164.684 31.9416 165.274C27.6037 166.531 23.165 164.683 20.0933 161.586C19.4603 160.945 18.8867 160.27 18.3633 159.552C18.2116 158.784 18.0511 158.025 17.8652 157.266C19.1735 159.477 20.8273 161.46 22.9958 162.903C26.4814 165.215 31.5357 165.747 34.8187 162.768C36.3716 161.359 37.2747 159.417 38.0929 157.528C38.9365 155.578 39.7467 153.612 41.055 151.916C42.3966 150.169 44.11 148.726 46.0672 147.722C48.0506 146.718 50.2104 146.152 52.2948 145.409C54.3791 144.667 56.3705 143.688 57.8559 142.009C59.2317 140.439 60.084 138.448 60.447 136.406C61.2318 131.95 59.4175 127.469 56.6239 124.051C51.3241 117.587 42.1003 114.178 33.9822 116.751C33.1974 116.996 32.4293 117.3 31.6866 117.655C31.712 117.342 31.7287 117.03 31.7454 116.718C33.3992 115.984 35.138 115.469 36.9522 115.225C45.7121 114.06 54.9526 118.778 59.2817 126.449C61.486 130.354 62.2279 135.063 60.4899 139.291Z" fill="#A164D1"/>
<path d="M79.073 79.0618C77.4867 83.3909 74.423 87.0869 69.9334 88.7669C68.3892 89.3492 66.7942 89.5517 65.1484 89.6105C63.4437 89.6693 61.7812 89.7368 60.1528 90.2769C57.4942 91.1459 55.1906 92.8252 52.895 94.3614C50.6168 95.8889 48.2283 97.4077 45.5196 98.0074C42.3971 98.6913 39.1483 97.9732 36.4563 96.3115C33.7476 94.6402 31.7054 92.1508 30.2708 89.3158C28.845 86.4888 28.0094 83.3154 27.7226 80.2604C27.478 77.6193 27.6297 74.9439 28.1786 72.3528C28.482 72.2178 28.7942 72.0915 29.1071 71.9731C28.339 75.357 28.2381 78.9013 28.8537 82.3106C29.2588 84.5808 30.0016 86.901 31.0898 89.0195C32.8532 92.4709 35.5539 95.3996 39.25 96.7325C42.077 97.7532 45.0224 97.5848 47.7565 96.3782C50.1871 95.3067 52.3302 93.6862 54.5496 92.2429C56.7435 90.8084 59.0979 89.458 61.7145 89.0108C63.4699 88.7153 65.2588 88.8591 67.0222 88.6311C68.4655 88.4452 69.8659 87.9813 71.1487 87.3061C74.7352 85.4156 77.0983 82.201 78.3724 78.5296C78.6091 78.7075 78.845 78.8767 79.073 79.0618Z" fill="#A164D1"/>
<path d="M23.949 100.632C23.8561 102.986 22.7758 105.062 21.4175 106.936C20.0926 108.767 18.5317 110.438 17.3664 112.396C16.7929 113.375 16.3282 114.422 16.1002 115.544C15.8135 116.995 15.9311 118.489 15.9906 119.957C16.0415 121.392 16.0415 122.861 15.6109 124.244C15.24 125.409 14.5815 126.456 13.7546 127.341C11.9491 129.265 9.40879 130.32 6.81768 130.608C4.58958 130.852 2.42979 130.54 0.395508 129.84C0.42887 129.553 0.463025 129.257 0.496387 128.971C3.19712 129.941 6.09166 130.203 8.98621 129.299C11.3152 128.573 13.4837 126.996 14.5219 124.734C15.7031 122.135 14.8762 119.199 15.1296 116.456C15.5347 111.958 19.1298 109.03 21.4167 105.443C22.7925 103.299 23.4081 100.979 22.9355 98.4301C22.4795 95.9066 21.3571 93.4846 20.0155 91.3161C18.3109 88.5566 16.0748 86.1434 13.475 84.2275C13.6188 83.9828 13.7705 83.7382 13.9222 83.5015C17.1797 85.898 19.8884 89.0546 21.7368 92.6577C22.9871 95.0876 24.0507 97.8558 23.949 100.632Z" fill="#A164D1"/>
<path d="M34.7201 99.8987C34.2189 100.81 33.7026 101.712 33.1704 102.605C32.9154 103.032 32.6604 103.46 32.3943 103.881C32.2672 104.082 32.1298 104.281 31.9781 104.468C31.7922 102.135 31.5213 99.8327 31.1599 97.5713C31.1234 97.3417 30.9089 97.1892 30.6762 97.221C30.4466 97.2583 30.2893 97.4752 30.3267 97.7047C32.2799 109.916 31.6333 123.324 28.4584 136.498C20.5476 136.691 12.4566 135.945 4.41395 134.255C4.18836 134.204 3.96198 134.354 3.91432 134.582C3.86666 134.81 4.01202 135.034 4.24079 135.081C11.4954 136.604 18.7866 137.373 25.9586 137.373C26.9094 137.373 27.8587 137.359 28.8047 137.332C28.9946 137.327 29.1574 137.195 29.2027 137.01C31.7819 126.442 32.739 115.717 32.0527 105.557C32.8209 104.935 33.2959 104.036 33.7963 103.2C34.3642 102.251 34.9147 101.292 35.4477 100.324C35.7106 99.8486 34.9822 99.4229 34.7201 99.8987Z" fill="#B788EF"/>
<path d="M67.6378 73.7111C66.9785 77.6311 65.891 81.4725 64.3842 85.1511C63.6335 86.9844 62.7733 88.774 61.8193 90.5096C61.3943 91.2817 60.9868 92.2238 60.3355 92.8354C59.5681 93.5559 58.5284 93.1524 57.6474 92.8879C51.3222 90.9886 45.6498 87.1242 41.4208 82.0691C39.037 79.219 37.1219 75.9718 35.8113 72.4934C35.6214 71.9898 34.8056 72.2082 34.9979 72.7174C37.4404 79.2023 41.8744 84.8294 47.5173 88.8368C50.3372 90.8393 53.4581 92.4232 56.7491 93.4908C57.5799 93.7601 58.5037 94.1278 59.3894 94.0976C60.3021 94.0667 60.9558 93.5146 61.4578 92.7965C62.6128 91.1443 63.4961 89.2149 64.3302 87.3863C66.2826 83.1025 67.6719 78.5788 68.452 73.9359C68.5409 73.4045 67.7275 73.1757 67.6378 73.7111Z" fill="#B788EF"/>
<path d="M78.397 111.072C74.3785 117.318 69.5052 122.994 63.9695 127.944C58.4561 132.875 52.2889 137.072 45.6793 140.391C41.9332 142.272 38.0465 143.861 34.0566 145.145C33.5419 145.311 33.7619 146.126 34.2806 145.959C41.4169 143.662 48.2322 140.391 54.4987 136.277C60.7636 132.164 66.4915 127.226 71.4609 121.615C74.2688 118.445 76.833 115.059 79.1246 111.498C79.4201 111.039 78.6901 110.616 78.397 111.072Z" fill="#B788EF"/>
<path d="M78.061 139.986C71.5173 145.926 63.1236 149.213 54.6687 151.367C52.2436 151.985 49.7971 152.515 47.341 152.997C46.8088 153.102 47.0344 153.915 47.565 153.811C56.2534 152.106 65.0538 149.777 72.6564 145.084C74.7876 143.769 76.802 142.267 78.6575 140.583C79.0611 140.218 78.4621 139.622 78.061 139.986Z" fill="#B788EF"/>
<path opacity="0.15" d="M89.7899 142.042C89.7899 141.755 89.7812 141.469 89.7645 141.173C89.6715 137.84 89.5198 134.515 89.3006 131.181C89.2839 130.827 89.2672 130.481 89.2331 130.126V130.118C89.1743 129.249 89.1147 128.388 89.0472 127.519C83.9166 133.24 77.8741 138.144 71.0723 141.747C60.6419 147.291 48.3973 149.544 36.7261 147.375C33.4432 146.768 30.211 145.822 27.1481 144.497C25.8398 143.932 24.557 143.291 23.3424 142.531C22.0095 147.443 20.127 152.202 17.7305 156.701V156.726C17.9751 157.663 18.1777 158.599 18.3635 159.553C19.0221 162.844 19.4097 166.178 19.4693 169.511C28.929 172.557 38.7858 174.279 48.7015 174.692C49.0224 174.709 49.3425 174.718 49.6722 174.726C63.0646 175.173 76.55 173.249 89.3014 169.021C89.8828 160.042 90.0433 151.038 89.7899 142.042Z" fill="#3E2061"/>
</svg>
